<svg width="24" height="24" viewBox="0 0 24 24" fill="none" xmlns="http://www.w3.org/2000/svg">
<path d="M13.2944 3.75288C13.2759 3.7158 13.255 3.6799 13.232 3.6454C12.6362 2.75166 11.3638 2.75166 10.7679 3.6454C10.7449 3.6799 10.7241 3.7158 10.7056 3.75288L8.55251 8.05897L3.89971 8.80342C3.25364 8.84661 2.79932 9.30466 2.66734 9.83256C2.54676 10.3149 2.6863 10.8958 3.14988 11.2628L6.56799 14.5885L5.72025 19.2982C5.59238 19.8747 5.81421 20.4271 6.22529 20.756C6.62914 21.0791 7.25307 21.1988 7.8019 20.8657L12 18.6268L16.2294 20.8825C16.2789 20.9089 16.3305 20.931 16.3838 20.9488C16.8264 21.0963 17.3325 21.0305 17.7234 20.7568C18.1669 20.4464 18.4129 19.8971 18.2797 19.298L17.432 14.5885L20.85 11.2629C21.2695 10.9313 21.475 10.3912 21.3272 9.84948C21.1776 9.30081 20.726 8.95083 20.2425 8.82996C20.2146 8.82298 20.1864 8.8172 20.158 8.81266L15.4475 8.05897L13.2944 3.75288Z" stroke="#333333" stroke-width="2" stroke-miterlimit="10" stroke-linecap="round" stroke-linejoin="round"/>
</svg>
