<svg width="24" height="24" viewBox="0 0 24 24" fill="none" xmlns="http://www.w3.org/2000/svg">
<path fill-rule="evenodd" clip-rule="evenodd" d="M4 2C2.89543 2 2 2.89543 2 4V20C2 21.1046 2.89543 22 4 22H20C21.1046 22 22 21.1046 22 20V4C22 2.89543 21.1046 2 20 2H4ZM17.4533 9.90333L11.9766 16.52C11.74 16.7589 11.4311 16.8778 11.1211 16.8778C10.8111 16.8778 10.4988 16.7589 10.2566 16.52L6.98996 13.2256C6.55885 12.79 6.55885 12.0844 6.98996 11.6489C7.42107 11.2133 8.12107 11.2133 8.55329 11.6489L11.1166 14.2344L15.8922 8.32667C16.3222 7.89111 17.0222 7.89111 17.4533 8.32667C17.8855 8.76222 17.8855 9.46778 17.4533 9.90333Z" fill="#FFB800"/>
</svg>
