<svg width="24" height="24" viewBox="0 0 24 24" fill="none" xmlns="http://www.w3.org/2000/svg">
<path d="M12 15.6471C13.4619 15.6471 14.6471 14.462 14.6471 13.0001C14.6471 11.5382 13.4619 10.353 12 10.353C10.5381 10.353 9.35294 11.5382 9.35294 13.0001C9.35294 14.462 10.5381 15.6471 12 15.6471Z" fill="#333333"/>
<path d="M9.3 4L7.653 5.76471H4.8C3.81 5.76471 3 6.55882 3 7.52941V18.1176C3 19.0882 3.81 19.8824 4.8 19.8824H19.2C20.19 19.8824 21 19.0882 21 18.1176V7.52941C21 6.55882 20.19 5.76471 19.2 5.76471H16.347L14.7 4H9.3ZM12 17.2353C9.516 17.2353 7.5 15.2588 7.5 12.8235C7.5 10.3882 9.516 8.41176 12 8.41176C14.484 8.41176 16.5 10.3882 16.5 12.8235C16.5 15.2588 14.484 17.2353 12 17.2353Z" fill="#333333"/>
</svg>
