<svg width="24" height="24" viewBox="0 0 24 24" fill="none" xmlns="http://www.w3.org/2000/svg">
<path d="M12.5 14.1429C14.0414 14.1429 15.2764 12.8986 15.2764 11.3571L15.2857 5.78571C15.2857 4.24429 14.0414 3 12.5 3C10.9586 3 9.71429 4.24429 9.71429 5.78571V11.3571C9.71429 12.8986 10.9586 14.1429 12.5 14.1429ZM17.4214 11.3571C17.4214 14.1429 15.0629 16.0929 12.5 16.0929C9.93714 16.0929 7.57857 14.1429 7.57857 11.3571H6C6 14.5236 8.52571 17.1421 11.5714 17.5971V20.6429H13.4286V17.5971C16.4743 17.1514 19 14.5329 19 11.3571H17.4214Z" fill="#333333"/>
</svg>
