<svg width="24" height="24" viewBox="0 0 24 24" fill="none" xmlns="http://www.w3.org/2000/svg">
<path d="M12 16.5833C13.0417 16.5833 13.9272 16.2186 14.6567 15.4892C15.3861 14.7597 15.7505 13.8744 15.75 12.8333C15.75 11.7917 15.3853 10.9061 14.6558 10.1767C13.9264 9.44722 13.0411 9.08278 12 9.08333C10.9583 9.08333 10.0728 9.44805 9.34332 10.1775C8.61388 10.9069 8.24944 11.7922 8.24999 12.8333C8.24999 13.875 8.61471 14.7606 9.34416 15.49C10.0736 16.2194 10.9589 16.5839 12 16.5833ZM12 14.9167C11.4167 14.9167 10.9236 14.7153 10.5208 14.3125C10.118 13.9097 9.91666 13.4167 9.91666 12.8333C9.91666 12.25 10.118 11.7569 10.5208 11.3542C10.9236 10.9514 11.4167 10.75 12 10.75C12.5833 10.75 13.0764 10.9514 13.4792 11.3542C13.8819 11.7569 14.0833 12.25 14.0833 12.8333C14.0833 13.4167 13.8819 13.9097 13.4792 14.3125C13.0764 14.7153 12.5833 14.9167 12 14.9167ZM5.33332 19.5C4.87499 19.5 4.48249 19.3367 4.15582 19.01C3.82916 18.6833 3.6661 18.2911 3.66666 17.8333V7.83333C3.66666 7.375 3.82999 6.9825 4.15666 6.65583C4.48332 6.32917 4.87555 6.16611 5.33332 6.16667H7.95832L9.49999 4.5H14.5L16.0417 6.16667H18.6667C19.125 6.16667 19.5175 6.33 19.8442 6.65667C20.1708 6.98333 20.3339 7.37555 20.3333 7.83333V17.8333C20.3333 18.2917 20.17 18.6842 19.8433 19.0108C19.5167 19.3375 19.1244 19.5006 18.6667 19.5H5.33332ZM18.6667 17.8333V7.83333H15.2917L13.7708 6.16667H10.2292L8.70832 7.83333H5.33332V17.8333H18.6667Z" fill="white"/>
</svg>
