<svg width="390" height="844" viewBox="0 0 390 844" fill="none" xmlns="http://www.w3.org/2000/svg">
<g clip-path="url(#clip0_3597_28864)">
<rect width="390" height="844" fill="#F7F2E9"/>
<g opacity="0.4">
<path d="M187.56 81.5326C191.743 62.4215 191.288 44.9964 186.229 29.2836C181.17 13.5708 171.967 0.997559 158.625 -8.44543C142.624 -19.7754 120.858 -21.7448 93.3464 -14.3676C65.8346 -6.99034 35.1471 9.07365 1.28882 33.8378C-1.35298 35.7675 -3.9925 37.765 -6.63127 39.7851C-5.71046 57.8267 -5.81504 76.8974 -6.95348 97.0155C-5.91932 96.113 -4.87593 95.2147 -3.84101 94.3347C17.0635 76.5085 36.6099 62.0072 54.8024 50.8218C72.9993 39.6272 88.8331 32.039 102.295 28.0529C115.77 24.0618 125.568 24.2388 131.703 28.579C141.844 35.7514 146.664 47.0107 146.163 62.3793C145.666 77.7387 138.549 95.0701 124.808 114.382C111.553 132.45 94.9301 146.933 74.9363 157.843C54.9425 168.752 32.8195 174.468 8.56803 175.012C0.623623 175.191 -7.37267 174.634 -15.4421 173.386L-24.3344 213.692C-4.34881 217.11 15.3703 217.587 34.8256 215.07C59.7839 211.857 83.096 203.885 104.772 191.181C126.448 178.477 144.999 161.278 160.435 139.587C174.367 120.006 183.423 100.665 187.587 81.5454L187.56 81.5326Z" fill="#FE7474"/>
<path d="M256.955 50.8005C261.846 63.7381 268.836 73.8881 277.894 81.2476C286.951 88.6071 297.253 92.5083 308.801 92.9584C322.652 93.5008 336.309 86.2736 349.766 71.2919C363.223 56.3103 375.212 34.9565 385.724 7.2245C386.545 5.06224 387.339 2.86064 388.124 0.64593C380.62 -9.68954 373.327 -21.0303 366.243 -33.3904C365.978 -32.4567 365.706 -31.522 365.432 -30.6015C359.92 -11.9764 353.931 4.15463 347.464 17.7988C340.999 31.45 334.543 42.053 328.104 49.6067C321.658 57.1684 315.784 60.8424 310.475 60.6367C301.699 60.2976 294.501 55.4847 288.871 46.1847C283.242 36.8918 280.775 23.8773 281.47 7.1342C282.356 -8.6837 286.62 -23.6767 294.26 -37.8519C301.9 -52.0271 312.805 -63.9459 326.965 -73.6215C331.604 -76.7916 336.557 -79.5451 341.82 -81.9176L331.544 -109.231C318.384 -103.548 306.515 -96.2261 295.957 -87.2312C282.408 -75.7018 271.668 -61.9874 263.724 -46.1002C255.779 -30.213 251.419 -12.8668 250.638 5.93937C249.934 22.915 252.027 37.8681 256.933 50.8036L256.955 50.8005Z" fill="#FFC7C2"/>
<path d="M349.847 661.757C330.303 660.893 313.21 664.312 298.59 671.976C283.97 679.64 273.15 690.851 266.119 705.608C257.683 723.307 259.454 745.089 271.413 770.941C283.373 796.792 304.434 824.291 334.608 853.432C336.96 855.706 339.378 857.966 341.818 860.222C359.439 856.239 378.248 853.091 398.266 850.783C397.2 849.917 396.137 849.042 395.094 848.173C373.964 830.613 356.343 813.825 342.22 797.806C328.087 781.784 317.91 767.476 311.687 754.891C305.457 742.294 303.961 732.608 307.192 725.823C312.53 714.608 322.803 707.939 338.032 705.813C353.251 703.684 371.542 707.742 392.915 717.989C412.977 727.97 430.083 741.88 444.241 759.721C458.399 777.563 467.803 798.387 472.474 822.191C474.005 829.988 474.819 837.963 474.965 846.127L516.197 848.017C516.158 827.741 513.266 808.23 507.469 789.488C500.048 765.443 488.218 743.831 472.005 724.639C455.792 705.446 435.681 690.099 411.676 678.587C390.007 668.197 369.405 662.571 349.855 661.727L349.847 661.757Z" fill="#FE7474"/>
<path d="M392.622 830.949C381.097 832.333 370.229 831.121 360.015 827.305C349.798 823.491 340.939 817.752 333.434 810.084C325.611 801.862 321.056 794.133 319.78 786.885C318.495 779.642 320.013 773.973 324.329 769.888C326.94 767.415 331.569 766.668 338.224 767.647C344.872 768.625 352.889 771.15 362.27 775.223C371.649 779.292 381.893 784.848 393.01 791.875C393.563 792.226 394.111 792.579 394.667 792.934C392.758 783.477 391.411 774.446 390.62 765.834C389.23 765.051 387.839 764.286 386.463 763.551C368.736 754.11 353.11 748.572 339.576 746.938C326.031 745.305 315.857 747.716 309.046 754.165C303.369 759.543 299.865 766.125 298.538 773.914C297.206 781.705 298.181 789.992 301.462 798.772C304.739 807.549 310.345 816.102 318.273 824.441C327.058 833.672 337.019 840.571 348.151 845.124C359.283 849.677 370.866 851.873 382.91 851.71C392.297 851.586 401.605 850.025 410.84 847.053L403.885 828.553C400.15 829.695 396.397 830.496 392.622 830.949Z" fill="#FFD362"/>
<path d="M1.88314 549.664C13.1452 552.475 22.8701 557.476 31.055 564.679C39.2447 571.881 45.4802 580.399 49.7625 590.236C54.1454 600.705 55.6495 609.549 54.2615 616.777C52.883 624.002 49.4457 628.759 43.9581 631.04C40.6382 632.421 36.0462 631.471 30.1763 628.186C24.3123 624.905 17.7197 619.692 10.4036 612.545C3.0884 605.403 -4.50624 596.563 -12.3926 586.039C-12.7841 585.514 -13.1709 584.989 -13.5634 584.459C-15.1476 593.976 -17.1042 602.895 -19.4312 611.224C-18.411 612.451 -17.3843 613.661 -16.3599 614.837C-3.15593 629.972 9.47348 640.711 21.5389 647.057C33.6148 653.405 43.98 654.775 52.6412 651.174C59.8614 648.17 65.4788 643.267 69.4926 636.461C73.5111 629.654 75.5508 621.564 75.6118 612.191C75.6738 602.823 73.4809 592.834 69.0417 582.219C64.1191 570.465 57.2679 560.471 48.4866 552.252C39.7052 544.034 29.6636 537.858 18.3512 533.721C9.53515 530.495 0.281053 528.639 -9.40662 528.129L-9.49462 547.893C-5.59798 548.156 -1.80607 548.743 1.88314 549.664Z" fill="#BCDBF0"/>
</g>
</g>
<defs>
<clipPath id="clip0_3597_28864">
<rect width="390" height="844" fill="white"/>
</clipPath>
</defs>
</svg>
