<svg width="56" height="41" viewBox="0 0 56 41" fill="none" xmlns="http://www.w3.org/2000/svg">
<g clip-path="url(#clip0_402_14044)">
<path d="M28.6789 35.0285C28.4516 35.0357 28.2258 35.0401 28.0014 35.0429C30.4593 35.069 32.7363 34.7799 34.8353 34.1757L34.8194 34.1005C33.7713 30.377 32.6234 26.9282 31.3756 23.754C30.1308 26.5351 29.006 29.5358 28.0014 32.7562C28.2345 33.5021 28.4603 34.2595 28.6789 35.0285Z" fill="#FFE001"/>
<path d="M36.1063 40.0066L36.0918 39.9415C35.6923 40.0499 35.2899 40.1511 34.8817 40.2436L36.1063 40.0066Z" fill="#FFE001"/>
<path d="M21.1183 40.2437C21.5149 40.3347 21.9144 40.4185 22.3198 40.4952C24.1524 40.8392 26.0255 41.0068 27.942 40.9996C26.0009 40.9852 24.0177 40.7886 21.9912 40.4128L21.1183 40.2437Z" fill="#FFE001"/>
<path d="M17.97 32.947C14.8722 31.4206 12.3578 29.3507 10.4282 26.7345C8.49718 24.1182 7.2161 21.2403 6.58497 18.0994C5.96397 14.7676 6.07832 12.0907 6.93238 10.0671C7.78354 8.04344 9.0791 6.86974 10.8162 6.54741C11.8671 6.35227 13.1424 6.91744 14.6435 8.24436C16.1432 9.56983 17.734 11.5053 19.4146 14.0507C21.0952 16.5947 22.7512 19.6518 24.387 23.2192C24.468 23.3969 24.5476 23.5747 24.6287 23.754C25.6825 21.0741 26.8073 18.5923 28.003 16.3056C27.7829 15.8835 27.56 15.4658 27.3356 15.0582C24.442 9.81122 21.4412 5.88395 18.3304 3.27492C15.2167 0.664454 12.2898 -0.384938 9.54811 0.123858C7.26242 0.548818 5.32415 1.62856 3.73329 3.36454C2.14098 5.10052 1.04374 7.33518 0.441555 10.0685C-0.160627 12.8004 -0.146151 15.8546 0.482087 19.2326C1.17981 22.9734 2.54774 26.3211 4.58734 29.2712C6.62695 32.2214 9.16016 34.6541 12.1899 36.5707C14.5508 38.0653 17.1246 39.187 19.9082 39.9429L21.1662 34.1771C20.0501 33.8562 18.9847 33.4471 17.97 32.947Z" fill="#FFE001"/>
<path d="M19.8937 40.0066L21.1183 40.2436C20.7101 40.1511 20.3077 40.0499 19.9082 39.9415L19.8937 40.0066Z" fill="#BCDBF0"/>
<path d="M28.0579 40.9996C29.973 41.0068 31.8476 40.8392 33.6802 40.4952C34.0855 40.4185 34.485 40.3347 34.8816 40.2437L34.0087 40.4128C31.9822 40.7886 29.999 40.9852 28.0579 40.9996Z" fill="#FFE001"/>
<path d="M28 32.7577C26.9968 29.5373 25.8706 26.5365 24.6257 23.7555C23.3779 26.9297 22.23 30.3771 21.182 34.102L21.1661 34.1771C23.265 34.7813 25.5435 35.0719 28 35.0444C27.7756 35.0415 27.5498 35.0372 27.3225 35.03C27.5425 34.261 27.7684 33.5036 28 32.7577Z" fill="#BCDBF0"/>
<path d="M55.5585 10.0685C54.9577 7.33665 53.859 5.102 52.2682 3.36602C50.6773 1.63004 48.739 0.550297 46.4534 0.125337C43.7117 -0.384905 40.7847 0.665933 37.6739 3.27496C34.5632 5.88398 31.5609 9.81125 28.6687 15.0582C28.4429 15.4673 28.2214 15.885 28.0014 16.3056C29.1971 18.5923 30.3218 21.0741 31.3756 23.754C31.4553 23.5748 31.5363 23.3955 31.6174 23.2192C33.2517 19.6504 34.9091 16.5947 36.5897 14.0507C38.2703 11.5053 39.8612 9.56986 41.3609 8.24439C42.862 6.91747 44.1373 6.35231 45.1882 6.54744C46.9253 6.86978 48.2194 8.04203 49.072 10.0671C49.9246 12.0907 50.0404 14.7677 49.4194 18.0994C48.7868 21.2404 47.5057 24.1183 45.5761 26.7345C43.6465 29.3508 41.1321 31.4206 38.0344 32.947C37.0197 33.4471 35.9543 33.8548 34.8382 34.1771L36.0961 39.943C38.8798 39.187 41.4535 38.0653 43.8145 36.5707C46.8442 34.6555 49.3774 32.2214 51.417 29.2713C53.4566 26.3211 54.8245 22.9749 55.5223 19.2327C56.1519 15.8546 56.1664 12.8004 55.5628 10.0685H55.5585Z" fill="#BCDBF0"/>
<path d="M28 35.0429C25.542 35.0689 23.265 34.7799 21.1661 34.1757L19.9081 39.9415C20.3077 40.0499 20.7101 40.1511 21.1183 40.2436L21.9912 40.4127C24.0177 40.7886 26.0009 40.9851 27.9421 40.9996C27.9609 40.9996 27.9811 40.9996 28 40.9996C28.0188 40.9996 28.039 40.9996 28.0579 40.9996C29.999 40.9851 31.9822 40.7886 34.0087 40.4127L34.8816 40.2436C35.2898 40.1511 35.6923 40.0499 36.0918 39.9415L34.8339 34.1757C32.7349 34.7799 30.4565 35.0704 28 35.0429Z" fill="#FFE001"/>
<path d="M28 32.7577C29.0031 29.5373 30.1293 26.5365 31.3742 23.7555C30.3204 21.0756 29.1957 18.5938 28 16.3071C26.8043 18.5938 25.6796 21.0756 24.6257 23.7555C25.8706 26.5365 26.9954 29.5373 28 32.7577Z" fill="#EC9316"/>
</g>
<defs>
<clipPath id="clip0_402_14044">
<rect width="56" height="41" fill="white"/>
</clipPath>
</defs>
</svg>
