<svg width="24" height="24" viewBox="0 0 24 24" fill="none" xmlns="http://www.w3.org/2000/svg">
<path fill-rule="evenodd" clip-rule="evenodd" d="M8.85 5C9.62808 4.99956 10.3949 5.18634 11.0855 5.54458C11.4142 5.71506 11.721 5.922 12.0005 6.16065C12.8475 5.4376 13.9478 5 15.15 5C17.8274 5 20 7.16834 20 9.84548C20 12.1528 18.6511 14.2285 17.1289 15.7639C15.5969 17.3092 13.7166 18.4839 12.315 18.9491C12.1105 19.017 11.8895 19.017 11.685 18.9491C10.2834 18.4839 8.4031 17.3092 6.87109 15.7639C5.34893 14.2285 4 12.1528 4 9.84548C4 7.16857 6.17219 5.00038 8.84929 5M10.1646 7.31994C9.75877 7.10944 9.30809 6.99968 8.85071 7L8.85 7C7.27493 7 6 8.27512 6 9.84548C6 11.3837 6.92607 12.9786 8.29141 14.3558C9.51756 15.5926 10.9599 16.5124 12 16.9343C13.0401 16.5124 14.4824 15.5926 15.7086 14.3558C17.0739 12.9786 18 11.3837 18 9.84548C18 8.27512 16.7251 7 15.15 7C14.1864 7 13.3343 7.47656 12.8174 8.21005C12.6299 8.47604 12.3248 8.63418 11.9994 8.63398C11.674 8.63378 11.369 8.47525 11.1819 8.20902C10.9193 7.83544 10.5704 7.53044 10.1646 7.31994Z" fill="white"/>
<path fill-rule="evenodd" clip-rule="evenodd" d="M12.6 6C13.1523 6 13.6 6.44772 13.6 7V8.85065C13.6 9.1654 13.4518 9.46179 13.2 9.65064L12.1224 10.4589L13.3071 11.6436C13.5121 11.8485 13.618 12.1324 13.5975 12.4215C13.5769 12.7107 13.4319 12.9767 13.2 13.1507L12.1224 13.9589L13.2 14.8095C13.3875 14.997 13.6 15 13.6 15.8507V17C13.6 17.5523 13.1523 18 12.6 18C12.0477 18 11.6 17.5523 11.6 17V15.8L9.8929 14.5578C9.68792 14.3528 9.58198 14.069 9.60252 13.7798C9.62307 13.4906 9.76809 13.2246 10 13.0507L11.0776 12.2425L9.89291 11.0578C9.68792 10.8528 9.58198 10.569 9.60252 10.2798C9.62307 9.99064 9.76809 9.72462 10 9.55068L11.6 8.35065V7C11.6 6.44772 12.0477 6 12.6 6Z" fill="white"/>
</svg>
