<svg width="24" height="24" viewBox="0 0 24 24" fill="none" xmlns="http://www.w3.org/2000/svg">
<path d="M8 7C7.48133 7 6.15562 7 4.99957 7C3.895 7 3 7.89543 3 9V18C3 19.1046 3.89543 20 5 20H19C20.1046 20 21 19.1046 21 18V9C21 7.89543 20.1046 7 19 7H16" stroke="#333333" stroke-width="2" stroke-linecap="round" stroke-linejoin="round"/>
<path d="M8 7L8.44721 6.10557C8.786 5.428 9.47852 5 10.2361 5H13.7639C14.5215 5 15.214 5.428 15.5528 6.10557L16 7" stroke="#333333" stroke-width="2" stroke-linejoin="round"/>
<circle cx="12" cy="13.5" r="3" stroke="#333333" stroke-width="2" stroke-linejoin="round"/>
</svg>
