<svg width="24" height="24" viewBox="0 0 24 24" fill="none" xmlns="http://www.w3.org/2000/svg">
<path fill-rule="evenodd" clip-rule="evenodd" d="M12 22C17.5228 22 22 17.5228 22 12C22 6.47715 17.5228 2 12 2C6.47715 2 2 6.47715 2 12C2 17.5228 6.47715 22 12 22ZM12.7071 9.0707C12.5196 8.88316 12.2652 8.77781 12 8.77781C11.7348 8.77781 11.4804 8.88316 11.2929 9.0707L7.95957 12.404C7.56905 12.7946 7.56905 13.4277 7.95957 13.8182C8.3501 14.2088 8.98326 14.2088 9.37378 13.8182L12 11.192L14.6262 13.8182C15.0168 14.2088 15.6499 14.2088 16.0405 13.8182C16.431 13.4277 16.431 12.7946 16.0405 12.404L12.7071 9.0707Z" fill="#333333"/>
</svg>
