<svg width="24" height="24" viewBox="0 0 24 24" fill="none" xmlns="http://www.w3.org/2000/svg">
<path fill-rule="evenodd" clip-rule="evenodd" d="M12 21C16.9706 21 21 16.9706 21 12C21 7.02944 16.9706 3 12 3C7.02944 3 3 7.02944 3 12C3 16.9706 7.02944 21 12 21ZM10.2938 8.29129C9.90206 8.67968 9.90206 9.30938 10.2938 9.69777L12.6211 12.0049L10.3039 14.3022C9.91209 14.6906 9.91209 15.3203 10.3039 15.7087C10.6956 16.0971 11.3308 16.0971 11.7226 15.7087L14.6779 12.7788C15.1074 12.3531 15.1074 11.6676 14.6779 11.2311L11.7125 8.29129C11.3208 7.9029 10.6856 7.9029 10.2938 8.29129Z" fill="#333333"/>
<mask id="mask0_58_36531" style="mask-type:luminance" maskUnits="userSpaceOnUse" x="3" y="3" width="18" height="18">
<path fill-rule="evenodd" clip-rule="evenodd" d="M12 21C16.9706 21 21 16.9706 21 12C21 7.02944 16.9706 3 12 3C7.02944 3 3 7.02944 3 12C3 16.9706 7.02944 21 12 21ZM10.2938 8.29129C9.90206 8.67968 9.90206 9.30938 10.2938 9.69777L12.6211 12.0049L10.3039 14.3022C9.91209 14.6906 9.91209 15.3203 10.3039 15.7087C10.6956 16.0971 11.3308 16.0971 11.7226 15.7087L14.6779 12.7788C15.1074 12.3531 15.1074 11.6676 14.6779 11.2311L11.7125 8.29129C11.3208 7.9029 10.6856 7.9029 10.2938 8.29129Z" fill="white"/>
</mask>
<g mask="url(#mask0_58_36531)">
<path fill-rule="evenodd" clip-rule="evenodd" d="M0 24H24V0H0V24Z" fill="#333333"/>
</g>
</svg>
