<svg width="56" height="56" viewBox="0 0 56 56" fill="none" xmlns="http://www.w3.org/2000/svg">
<path d="M18.6667 16.3334C17.0178 16.3334 11.8731 16.3334 8.99687 16.3334C7.8923 16.3334 7 17.2288 7 18.3334V44.6667C7 45.7713 7.89543 46.6667 9 46.6667H47C48.1046 46.6667 49 45.7713 49 44.6667V18.3334C49 17.2288 48.1046 16.3334 47 16.3334H37.3333" stroke="#333333" stroke-width="4" stroke-linecap="round" stroke-linejoin="round"/>
<path d="M18.6667 16.3333L20.4472 12.7722C20.786 12.0946 21.4785 11.6666 22.2361 11.6666H33.7639C34.5215 11.6666 35.214 12.0946 35.5528 12.7722L37.3333 16.3333" stroke="#333333" stroke-width="4" stroke-linejoin="round"/>
<circle cx="28" cy="31.5" r="7.33333" stroke="#333333" stroke-width="4" stroke-linejoin="round"/>
</svg>
