<svg width="19" height="19" viewBox="0 0 19 19" fill="none" xmlns="http://www.w3.org/2000/svg">
<path d="M17.8418 1.15714C17.9167 1.23219 17.9679 1.32759 17.9891 1.43151C18.0103 1.53543 18.0004 1.64327 17.9608 1.74165L11.6622 17.4877C11.6067 17.6264 11.514 17.7471 11.3943 17.8365C11.2747 17.9258 11.1326 17.9805 10.9839 17.9944C10.8352 18.0082 10.6855 17.9808 10.5514 17.9151C10.4173 17.8494 10.3038 17.748 10.2236 17.622L6.78369 12.2152L1.37696 8.77527C1.25066 8.69515 1.14895 8.5817 1.08305 8.44743C1.01715 8.31317 0.989621 8.1633 1.00351 8.01438C1.01739 7.86546 1.07215 7.72327 1.16173 7.6035C1.25132 7.48372 1.37225 7.39103 1.51118 7.33564L17.2573 1.03915C17.3556 0.999551 17.4635 0.989723 17.5674 1.01089C17.6713 1.03206 17.7667 1.08329 17.8418 1.15822V1.15714ZM7.86395 11.8992L10.8525 16.5947L15.9757 3.78744L7.86395 11.8992ZM15.2104 3.02216L2.4031 8.1453L7.09976 11.1328L15.2104 3.02216Z" fill="#333333" stroke="#333333" stroke-linejoin="round"/>
</svg>
