<svg width="16" height="16" viewBox="0 0 16 16" fill="none" xmlns="http://www.w3.org/2000/svg">
<path fill-rule="evenodd" clip-rule="evenodd" d="M8 14C11.3137 14 14 11.3137 14 8C14 4.68629 11.3137 2 8 2C4.68629 2 2 4.68629 2 8C2 11.3137 4.68629 14 8 14ZM5.5286 7.5286C5.78895 7.26825 6.21106 7.26825 6.4714 7.5286L7.33333 8.39052L9.5286 6.19526C9.78895 5.93491 10.2111 5.93491 10.4714 6.19526C10.7318 6.45561 10.7318 6.87772 10.4714 7.13807L7.80474 9.80474C7.54439 10.0651 7.12228 10.0651 6.86193 9.80474L5.5286 8.4714C5.26825 8.21106 5.26825 7.78895 5.5286 7.5286Z" fill="#EC9316"/>
</svg>
