<svg width="36" height="36" viewBox="0 0 36 36" fill="none" xmlns="http://www.w3.org/2000/svg">
<path d="M20.2532 5.74341H7.88675C6.29244 5.74341 5 7.12255 5 8.82381V24.663C5 26.3643 6.29244 27.7434 7.88675 27.7434H20.2532C21.8475 27.7434 23.14 26.3643 23.14 24.663V8.82381C23.14 7.12255 21.8475 5.74341 20.2532 5.74341Z" stroke="#333333" stroke-width="3"/>
<path d="M23.0143 8.04376L27.7201 9.03275C29.448 9.35532 30.5957 10.9725 30.2835 12.6449L27.3769 28.2151C27.0647 29.8875 25.4109 30.9817 23.6829 30.6592L10.28 28.1572L7.96416 27.7199" stroke="#333333" stroke-width="3"/>
<path d="M18.5699 15.281C18.5699 17.6283 15.8783 19.8154 14.0699 20.7434C12.2402 19.8333 9.56995 17.6346 9.56995 15.281C9.56995 13.8821 10.6738 12.7434 12.0424 12.7434C12.8816 12.7434 13.625 13.1769 14.0699 13.8359C14.5149 13.1769 15.2527 12.7434 16.0975 12.7434C17.4604 12.7434 18.5699 13.8821 18.5699 15.281Z" fill="#333333"/>
</svg>
