<svg width="77" height="39" viewBox="0 0 77 39" fill="none" xmlns="http://www.w3.org/2000/svg">
<path d="M40.6136 16.9651C44.1173 16.9651 46.9673 14.1307 46.9673 10.6461C46.9673 7.16155 44.1173 4.32715 40.6136 4.32715C37.1099 4.32715 34.2599 7.16155 34.2599 10.6461C34.2599 14.1307 37.1099 16.9651 40.6136 16.9651ZM36.7335 10.6461C36.7335 8.51813 38.4739 6.78726 40.6136 6.78726C42.7533 6.78726 44.4937 8.51813 44.4937 10.6461C44.4937 12.7741 42.7533 14.505 40.6136 14.505C38.4739 14.505 36.7335 12.7741 36.7335 10.6461Z" fill="#1D1D1D"/>
<path d="M46.7499 18.1812C46.9266 17.5257 46.5343 16.8492 45.8753 16.6735C45.2162 16.4978 44.536 16.8879 44.3593 17.5416C43.9052 19.2215 42.3645 20.3935 40.6117 20.3935C38.859 20.3935 37.3183 19.2215 36.8642 17.5416C36.6875 16.8879 36.0072 16.4978 35.3482 16.6735C34.6891 16.8492 34.2969 17.5257 34.4753 18.1812C35.2192 20.933 37.7423 22.8554 40.6117 22.8554C43.4811 22.8554 46.0043 20.933 46.7481 18.1812H46.7499Z" fill="#1D1D1D"/>
<path d="M36.509 25.7653C35.85 25.5896 35.1697 25.9797 34.9931 26.6351C34.8164 27.2905 35.2086 27.9671 35.8659 28.1428C37.555 28.5944 38.7335 30.1267 38.7335 31.8699C38.7335 33.613 37.555 35.1453 35.8659 35.5969C35.2086 35.7727 34.8164 36.4492 34.9931 37.1046C35.1415 37.6529 35.6415 38.0149 36.1875 38.0149C36.2935 38.0149 36.4013 38.0008 36.5073 37.9727C39.2742 37.2329 41.2072 34.7236 41.2072 31.8699C41.2072 29.0161 39.2742 26.5068 36.5073 25.767L36.509 25.7653Z" fill="#1D1D1D"/>
<path d="M47.3612 35.5935C45.6721 35.1419 44.4936 33.6096 44.4936 31.8664C44.4936 30.1232 45.6721 28.5909 47.3612 28.1393C48.0185 27.9636 48.4108 27.2871 48.2341 26.6316C48.0574 25.9762 47.3771 25.5861 46.7181 25.7636C43.9512 26.5034 42.0182 29.0127 42.0182 31.8664C42.0182 34.7201 43.9512 37.2295 46.7181 37.9692C46.8259 37.9974 46.9319 38.0114 47.0379 38.0114C47.5839 38.0114 48.0839 37.6494 48.2323 37.0994C48.409 36.444 48.0168 35.7674 47.3595 35.5917L47.3612 35.5935Z" fill="#1D1D1D"/>
<path d="M26.4414 25.2417C22.768 25.2417 19.7784 28.2149 19.7784 31.8682C19.7784 35.5215 22.768 38.4947 26.4414 38.4947C30.1147 38.4947 33.1043 35.5215 33.1043 31.8682C33.1043 28.2149 30.1147 25.2417 26.4414 25.2417ZM30.6306 31.8682C30.6306 34.1649 28.7507 36.0346 26.4414 36.0346C24.132 36.0346 22.2521 34.1649 22.2521 31.8682C22.2521 29.5715 24.1303 27.7018 26.4414 27.7018C28.7524 27.7018 30.6306 29.5697 30.6306 31.8682Z" fill="#1D1D1D"/>
<path d="M74.9476 20.5007C74.2656 20.5007 73.7108 21.0525 73.7108 21.7308V26.7213C72.5659 25.797 71.1082 25.2435 69.5215 25.2435C65.8482 25.2435 62.8586 28.2167 62.8586 31.87C62.8586 35.5233 65.8482 38.4965 69.5215 38.4965C71.1082 38.4965 72.5677 37.9412 73.7126 37.0169C73.7391 37.6723 74.2815 38.1995 74.9476 38.1995C75.6138 38.1995 76.1845 37.6477 76.1845 36.9694V21.7343C76.1845 21.056 75.6297 20.5042 74.9476 20.5042V20.5007ZM73.7108 31.8682C73.7108 34.1649 71.8326 36.0346 69.5215 36.0346C67.2105 36.0346 65.3323 34.1649 65.3323 31.8682C65.3323 29.5715 67.2122 27.7018 69.5215 27.7018C71.8309 27.7018 73.7108 29.5698 73.7108 31.8682Z" fill="#1D1D1D"/>
<path d="M21.3545 17.6312C22.0365 17.6312 22.5913 17.0794 22.5913 16.4011V9.7746C22.5913 8.12632 23.9412 6.78555 25.5985 6.78555H25.671C27.3283 6.78555 28.6782 8.12632 28.6782 9.7746V16.4011C28.6782 17.0794 29.233 17.6312 29.915 17.6312C30.5971 17.6312 31.1519 17.0794 31.1519 16.4011V9.7746C31.1519 6.76974 28.6924 4.32544 25.671 4.32544H25.5985C22.5772 4.32544 20.1177 6.76974 20.1177 9.7746V16.4011C20.1177 17.0794 20.6725 17.6312 21.3545 17.6312Z" fill="#1D1D1D"/>
<path d="M65.8605 17.6312C66.5425 17.6312 67.0973 17.0794 67.0973 16.4011V9.7746C67.0973 8.12632 68.4472 6.78555 70.1045 6.78555H70.177C70.859 6.78555 71.4138 6.23379 71.4138 5.5555C71.4138 4.87721 70.859 4.32544 70.177 4.32544H70.1045C67.0832 4.32544 64.6237 6.76974 64.6237 9.7746V16.4011C64.6237 17.0794 65.1785 17.6312 65.8605 17.6312Z" fill="#1D1D1D"/>
<path d="M20.1955 26.4455C20.1955 25.7795 19.6513 25.2383 18.9816 25.2383H18.9092C15.9002 25.2383 13.4513 27.672 13.4513 30.6646V37.2911C13.4513 37.9571 13.9955 38.4983 14.6651 38.4983C15.3348 38.4983 15.879 37.9571 15.879 37.2911V30.6646C15.879 29.004 17.2395 27.6527 18.9092 27.6527H18.9816C19.6513 27.6527 20.1955 27.1115 20.1955 26.4455Z" fill="#1D1D1D"/>
<path d="M15.3012 4.53276C14.6316 4.53276 14.0874 5.07399 14.0874 5.73998V16.4028C14.0874 17.0688 14.6316 17.61 15.3012 17.61C15.9709 17.61 16.5151 17.0688 16.5151 16.4028V5.73822C16.5151 5.07223 15.9709 4.53101 15.3012 4.53101V4.53276Z" fill="#1D1D1D"/>
<path d="M15.3012 3.40816C16.1082 3.40816 16.7624 2.75753 16.7624 1.95493C16.7624 1.15234 16.1082 0.501709 15.3012 0.501709C14.4942 0.501709 13.84 1.15234 13.84 1.95493C13.84 2.75753 14.4942 3.40816 15.3012 3.40816Z" fill="#1D1D1D"/>
<path d="M58.2099 5.31121C57.3212 4.79108 56.3706 4.53101 55.3546 4.53101C54.3387 4.53101 53.3616 4.7981 52.4658 5.33406C51.5682 5.87001 50.8473 6.63968 50.3013 7.64129C49.7536 8.64291 49.4797 9.8062 49.4797 11.1311C49.4797 12.3454 49.7448 13.4331 50.2766 14.3943C50.8084 15.3573 51.5611 16.1058 52.5364 16.6418C53.5118 17.1795 54.6408 17.4466 55.9253 17.4466C56.7187 17.4466 57.4961 17.2885 58.2576 16.9739C59.0191 16.6576 59.6287 16.2728 60.0881 15.8141C60.4061 15.5471 60.5652 15.2466 60.5652 14.9162C60.5652 14.6632 60.4733 14.4418 60.2913 14.2537C60.1075 14.064 59.8831 13.9691 59.6128 13.9691C59.3902 13.9691 59.1605 14.0394 58.9237 14.1817C58.558 14.5296 58.1375 14.8125 57.6622 15.0339C57.1869 15.2554 56.5685 15.3643 55.8069 15.3643C54.6973 15.3643 53.7574 15.0181 52.9888 14.324C52.259 13.6668 51.8244 12.8023 51.6901 11.7321H51.812V11.6636L51.858 11.6583C51.8544 11.6249 51.8491 11.5915 51.8456 11.5564H60.0386C60.3408 11.5564 60.6023 11.458 60.8249 11.2612C61.0457 11.0644 61.1659 10.8236 61.1818 10.539C61.1659 9.40379 60.8867 8.37933 60.3478 7.46381C59.8089 6.5483 59.0951 5.83135 58.2081 5.31121H58.2099ZM53.0471 7.35662C53.6973 6.86109 54.4676 6.61156 55.3546 6.61156C56.2416 6.61156 56.9766 6.88042 57.6498 7.41637C58.3247 7.95232 58.7011 8.6394 58.7806 9.47408V9.48814H58.6516V9.53558H58.6039V9.66386H51.9428C51.9498 9.63047 51.9569 9.59709 51.964 9.56546L51.9216 9.55491V9.48814C51.9481 9.48814 51.9693 9.50923 51.9693 9.52504V8.91353C52.206 8.24578 52.5647 7.72388 53.0471 7.35662Z" fill="#1D1D1D"/>
<path d="M58.2099 26.2011C57.3212 25.681 56.3706 25.4209 55.3546 25.4209C54.3387 25.4209 53.3616 25.688 52.4658 26.224C51.5682 26.7599 50.8473 27.5296 50.3013 28.5312C49.7536 29.5328 49.4797 30.6961 49.4797 32.021C49.4797 33.2353 49.7448 34.323 50.2766 35.2842C50.8084 36.2472 51.5611 36.9957 52.5364 37.5317C53.5118 38.0694 54.6408 38.3365 55.9253 38.3365C56.7187 38.3365 57.4961 38.1784 58.2576 37.8638C59.0191 37.5475 59.6287 37.1627 60.0881 36.704C60.4061 36.4369 60.5652 36.1365 60.5652 35.8061C60.5652 35.5531 60.4733 35.3316 60.2913 35.1436C60.1075 34.9538 59.8831 34.859 59.6128 34.859C59.3902 34.859 59.1605 34.9292 58.9237 35.0716C58.558 35.4195 58.1375 35.7024 57.6622 35.9238C57.1869 36.1452 56.5685 36.2542 55.8069 36.2542C54.6973 36.2542 53.7574 35.908 52.9888 35.2139C52.259 34.5567 51.8244 33.6922 51.6901 32.622H51.812V32.5535L51.858 32.5482C51.8544 32.5148 51.8491 32.4814 51.8456 32.4463H60.0386C60.3408 32.4463 60.6023 32.3479 60.8249 32.1511C61.0457 31.9543 61.1659 31.7135 61.1818 31.4289C61.1659 30.2937 60.8867 29.2692 60.3478 28.3537C59.8089 27.4382 59.0951 26.7212 58.2081 26.2011H58.2099ZM53.0471 28.2465C53.6973 27.751 54.4676 27.5015 55.3546 27.5015C56.2416 27.5015 56.9766 27.7703 57.6498 28.3063C58.3247 28.8422 58.7011 29.5293 58.7806 30.364V30.378H58.6516V30.4255H58.6039V30.5538H51.9428C51.9498 30.5204 51.9569 30.487 51.964 30.4554L51.9216 30.4448V30.378C51.9481 30.378 51.9693 30.3991 51.9693 30.4149V29.8034C52.206 29.1357 52.5647 28.6138 53.0471 28.2465Z" fill="#1D1D1D"/>
<path d="M6.66291 27.7107C7.99337 27.7107 9.25846 28.3485 10.0447 29.4187C10.2391 29.684 10.5271 29.858 10.854 29.9072C11.1808 29.9564 11.5077 29.8773 11.7745 29.684C12.0413 29.4907 12.2162 29.2043 12.2657 28.8792C12.3169 28.5541 12.2357 28.229 12.0413 27.9637C10.7903 26.2645 8.77964 25.2488 6.66291 25.2488C2.98956 25.2488 0 28.222 0 31.8753C0 35.5285 2.98956 38.5018 6.66291 38.5018C8.77964 38.5018 10.7886 37.4861 12.0413 35.7869C12.4441 35.2404 12.324 34.4689 11.7745 34.0683C11.225 33.6676 10.4493 33.7871 10.0465 34.3336C9.25846 35.4038 7.99514 36.0417 6.66468 36.0417C4.35536 36.0417 2.4754 34.172 2.4754 31.8753C2.4754 29.5786 4.35536 27.7089 6.66468 27.7089L6.66291 27.7107Z" fill="#1D1D1D"/>
<path d="M4.94557 3.73329C4.95087 3.72275 4.95794 3.71397 4.97207 3.69288C5.12403 3.44687 5.33959 3.24479 5.59402 3.10948C5.67706 3.06555 5.76011 3.0304 5.84138 3.00229C6.00924 2.9443 6.18769 2.91443 6.37145 2.91443H11.2374C11.9053 2.91443 12.4495 2.3732 12.4495 1.70721C12.4495 1.04123 11.9053 0.5 11.2374 0.5H6.07461C3.99323 0.5 2.30055 2.18342 2.30055 4.25343V7.65367H1.37117C0.618476 7.65367 0.00537109 8.19489 0.00537109 8.85912C0.00537109 9.52335 0.618476 10.0663 1.37117 10.0663H2.30055V16.4064C2.30055 17.0724 2.84475 17.6136 3.51263 17.6136C4.18051 17.6136 4.72648 17.0724 4.72648 16.4064V10.0663H11.0837C11.8364 10.0663 12.4495 9.52511 12.4495 8.85912C12.4495 8.19313 11.8364 7.65367 11.0837 7.65367H4.72648V4.54865C4.72648 4.26222 4.80246 3.98106 4.94734 3.73154L4.94557 3.73329Z" fill="#1D1D1D"/>
</svg>
