<svg width="24" height="24" viewBox="0 0 24 24" fill="none" xmlns="http://www.w3.org/2000/svg">
<path fill-rule="evenodd" clip-rule="evenodd" d="M8.85 5C9.62808 4.99956 10.3949 5.18634 11.0855 5.54458C11.4142 5.71506 11.721 5.922 12.0005 6.16065C12.8475 5.4376 13.9478 5 15.15 5C17.8274 5 20 7.16834 20 9.84548C20 12.1528 18.6511 14.2285 17.1289 15.7639C15.5969 17.3092 13.7166 18.4839 12.315 18.9491C12.1105 19.017 11.8895 19.017 11.685 18.9491C10.2834 18.4839 8.4031 17.3092 6.87109 15.7639C5.34893 14.2285 4 12.1528 4 9.84548C4 7.16857 6.17219 5.00038 8.84929 5M10.1646 7.31994C9.75877 7.10944 9.30809 6.99968 8.85071 7L8.85 7C7.27493 7 6 8.27512 6 9.84548C6 11.3837 6.92607 12.9786 8.29141 14.3558C9.51756 15.5926 10.9599 16.5124 12 16.9343C13.0401 16.5124 14.4824 15.5926 15.7086 14.3558C17.0739 12.9786 18 11.3837 18 9.84548C18 8.27512 16.7251 7 15.15 7C14.1864 7 13.3343 7.47656 12.8174 8.21005C12.6299 8.47604 12.3248 8.63418 11.9994 8.63398C11.674 8.63378 11.369 8.47525 11.1819 8.20902C10.9193 7.83544 10.5704 7.53044 10.1646 7.31994Z" fill="white"/>
</svg>
