<svg width="24" height="24" viewBox="0 0 24 24" fill="none" xmlns="http://www.w3.org/2000/svg">
<path d="M16 7L15.6 6.1C15.3 5.4 14.6 5 13.8 5H10.3C9.5 5 8.8 5.4 8.4 6.1L8 7C7.5 7 6.2 7 5 7C3.9 7 3 7.9 3 9V18C3 19.1 3.9 20 5 20H19C20.1 20 21 19.1 21 18V9C21 7.9 20.1 7 19 7H16Z" stroke="#333333" stroke-width="2" stroke-linejoin="round"/>
<path d="M12 16.5C13.6569 16.5 15 15.1569 15 13.5C15 11.8431 13.6569 10.5 12 10.5C10.3431 10.5 9 11.8431 9 13.5C9 15.1569 10.3431 16.5 12 16.5Z" stroke="#333333" stroke-width="2" stroke-linejoin="round"/>
</svg>
