<svg width="24" height="24" viewBox="0 0 24 24" fill="none" xmlns="http://www.w3.org/2000/svg">
<g clip-path="url(#clip0_1358_28416)">
<path d="M12 3C9.61305 3 7.32387 3.94821 5.63604 5.63604C3.94821 7.32387 3 9.61305 3 12C3 14.3869 3.94821 16.6761 5.63604 18.364C7.32387 20.0518 9.61305 21 12 21C14.3869 21 16.6761 20.0518 18.364 18.364C20.0518 16.6761 21 14.3869 21 12C21 9.61305 20.0518 7.32387 18.364 5.63604C16.6761 3.94821 14.3869 3 12 3ZM5.295 7.86675C5.66062 9.36188 8.1435 10.7242 9.47662 11.4555C10.0166 11.7514 10.3688 11.9438 10.3125 12C10.2225 12.09 10.1302 12.1778 10.0402 12.2633C9.57225 12.7087 9.15487 13.1059 9.1875 13.6875C9.22687 14.4008 9.88275 14.6145 10.5533 14.8316C11.2024 15.0431 11.8673 15.2591 12 15.9375C12.0922 16.4066 11.9156 17.049 11.7525 17.6475C11.5106 18.5273 11.2957 19.3125 12 19.3125C13.6875 18.75 16.2727 15.7282 16.5 13.6875C16.6552 12.2891 14.25 11.4375 12.5625 10.875C12.0247 10.695 11.7131 10.9661 11.4488 11.1945C11.2552 11.3632 11.0865 11.5084 10.875 11.4375C10.3744 11.271 8.0625 9.1875 9.1875 8.625C10.065 8.18625 10.2585 8.43263 10.5679 8.82975C10.6556 8.94113 10.7512 9.06375 10.875 9.1875C11.5601 9.5295 11.6198 9.039 11.6884 8.47538C11.7323 8.11313 11.7795 7.7205 12 7.5C12.4882 7.01175 13.4231 6.61013 14.2815 6.24C15.0825 5.89575 15.8171 5.57963 16.0579 5.25C17.3958 6.05452 18.4643 7.23854 19.1279 8.65165C19.7914 10.0648 20.02 11.6432 19.7845 13.1865C19.549 14.7298 18.8602 16.1683 17.8054 17.3192C16.7507 18.4702 15.3777 19.2817 13.8608 19.6507C12.3438 20.0196 10.7515 19.9294 9.28595 19.3915C7.82042 18.8535 6.54785 17.8921 5.62987 16.6294C4.7119 15.3666 4.18995 13.8595 4.13032 12.2995C4.0707 10.7395 4.47609 9.19587 5.295 7.86675Z" fill="white"/>
</g>
<defs>
<clipPath id="clip0_1358_28416">
<rect width="18" height="18" fill="white" transform="translate(3 3)"/>
</clipPath>
</defs>
</svg>
