<svg width="194" height="194" viewBox="0 0 194 194" fill="none" xmlns="http://www.w3.org/2000/svg">
<mask id="mask0_1076_9796" style="mask-type:alpha" maskUnits="userSpaceOnUse" x="1" y="1" width="192" height="192">
<circle cx="97" cy="97" r="96" fill="#FFD362"/>
</mask>
<g mask="url(#mask0_1076_9796)">
<circle cx="97" cy="97" r="96" fill="#FFD362"/>
<path opacity="0.7" d="M32.9647 44.6286C37.2079 51.0042 39.7262 57.7902 40.5135 64.9907C41.3036 72.1927 40.555 79.1852 38.2661 85.9711C35.7451 93.1157 32.5428 98.1798 28.6491 101.161C24.761 104.146 20.9672 104.993 17.2749 103.703C15.0409 102.922 13.2236 100.42 11.8218 96.1918C10.4211 91.9681 9.52519 86.4612 9.13672 79.6726C8.74665 72.8869 8.97556 65.1334 9.81192 56.4129C9.85449 55.9788 9.89983 55.5463 9.944 55.1094C4.93577 59.1431 0.0121029 62.7147 -4.83023 65.8297C-4.87834 66.8906 -4.91607 67.9464 -4.93974 68.9841C-5.23392 82.3483 -3.85204 93.2719 -0.790166 101.761C2.27566 110.256 6.72266 115.518 12.5504 117.555C17.4098 119.252 22.3321 119.296 27.3191 117.685C32.3089 116.075 36.9043 112.952 41.1055 108.317C45.3051 103.684 48.6806 97.7463 51.2392 90.5041C54.0687 82.4817 55.1741 74.4826 54.5478 66.5135C53.9215 58.5443 51.7714 51.0341 48.0935 43.9769C45.2287 38.4755 41.5399 33.4624 37.0409 28.927L28.2024 38.719C29.9863 40.5719 31.5749 42.5399 32.9647 44.6286Z" fill="#FE7474"/>
<path opacity="0.7" d="M136.889 64.7387C131.896 66.0777 127.176 66.043 122.737 64.6441C118.297 63.2451 114.542 60.6095 111.468 56.7386C107.781 52.0959 106.392 45.7045 107.3 37.5697C108.208 29.4349 111.335 20.3166 116.685 10.2161C117.102 9.42807 117.537 8.64028 117.978 7.85258C122.883 8.02094 128.026 7.88182 133.41 7.43263C133.207 7.74196 133.006 8.05399 132.809 8.36342C128.821 14.614 125.678 20.4461 123.375 25.8612C121.07 31.2776 119.646 35.9784 119.1 39.961C118.554 43.9475 118.987 46.8288 120.4 48.6088C122.735 51.5512 125.963 52.9049 130.091 52.6702C134.216 52.4368 138.613 50.2448 143.284 46.0929C147.638 42.0911 150.892 37.1191 153.049 31.1757C155.206 25.2324 155.877 18.6922 155.07 11.5553C154.805 9.21733 154.34 6.8683 153.685 4.5017L164.213 1.65693C165.922 7.51646 166.827 13.3143 166.913 19.0516C167.029 26.4116 165.795 33.3144 163.22 39.7628C160.645 46.2111 156.734 51.7659 151.488 56.4297C146.753 60.6394 141.89 63.4131 136.894 64.7467L136.889 64.7387Z" fill="#BCDBF0"/>
<path d="M71.3932 106.866C63.9503 102.101 56.521 99.5492 49.1212 99.2005C41.7215 98.8518 35.0238 100.737 29.0249 104.853C21.828 109.79 17.7171 118.62 16.6887 131.334C15.6604 144.049 17.8231 159.464 23.1834 177.58C23.6005 178.993 24.0467 180.416 24.5025 181.842C32.2625 184.295 40.3028 187.341 48.6297 190.986C48.4043 190.409 48.182 189.83 47.9662 189.257C43.5852 177.672 40.4042 167.182 38.4199 157.781C36.4323 148.378 35.6123 140.534 35.9564 134.254C36.3006 127.967 37.8515 123.88 40.6092 121.987C45.1668 118.857 50.6491 118.605 57.0658 121.235C63.4792 123.861 69.7283 129.578 75.8162 138.388C81.4514 146.798 85.0655 156.059 86.6618 166.172C88.2581 176.285 87.3397 186.475 83.9162 196.745C82.7951 200.109 81.3549 203.379 79.612 206.571L95.2988 216.65C99.7535 208.795 102.926 200.59 104.793 192.023C107.196 181.037 107.341 169.992 105.24 158.89C103.139 147.788 98.668 137.291 91.8304 127.394C85.6581 118.462 78.8521 111.615 71.4028 106.856L71.3932 106.866Z" fill="#BCDBF0"/>
<path opacity="0.9" d="M182.136 159.186C174.997 156.54 169.005 152.556 164.163 147.227C159.317 141.898 155.831 135.838 153.704 129.043C151.554 121.825 151.168 115.881 152.556 111.207C153.937 106.534 156.493 103.635 160.216 102.514C162.469 101.836 165.393 102.785 168.992 105.365C172.587 107.943 176.527 111.847 180.808 117.078C185.089 122.306 189.437 128.674 193.863 136.175C194.083 136.549 194.299 136.923 194.519 137.3C196.188 131.129 198.059 125.379 200.131 120.043C199.549 119.162 198.963 118.291 198.375 117.443C190.798 106.525 183.301 98.55 175.876 93.5143C168.445 88.4761 161.793 86.8447 155.916 88.6138C151.017 90.0905 147.033 92.9328 143.966 97.144C140.895 101.355 139.025 106.553 138.357 112.736C137.689 118.916 138.446 125.664 140.623 132.983C143.038 141.087 146.825 148.165 151.988 154.207C157.15 160.248 163.27 165.03 170.353 168.554C175.873 171.303 181.769 173.177 188.038 174.194L189.42 161.153C186.903 160.706 184.475 160.053 182.136 159.186Z" fill="#FE7474"/>
</g>
<path d="M97 6C46.7407 6 6 46.7407 6 97C6 147.259 46.7407 188 97 188C147.259 188 188 147.259 188 97C188 46.7407 147.259 6 97 6Z" stroke="white" stroke-width="12" stroke-linecap="round" stroke-linejoin="round"/>
<path d="M27 155C27 155 47.1863 120.951 96.9955 120.951C146.805 120.951 167 155 167 155M96.9955 96.9166C104.201 96.9166 111.111 94.0237 116.207 88.8742C121.302 83.7248 124.164 76.7407 124.164 69.4583C124.164 62.1759 121.302 55.1918 116.207 50.0423C111.111 44.8929 104.201 42 96.9955 42C89.7899 42 82.8794 44.8929 77.7843 50.0423C72.6892 55.1918 69.8268 62.1759 69.8268 69.4583C69.8268 76.7407 72.6892 83.7248 77.7843 88.8742C82.8794 94.0237 89.7899 96.9166 96.9955 96.9166Z" stroke="white" stroke-width="16" stroke-linecap="round" stroke-linejoin="round"/>
</svg>
