<svg width="24" height="24" viewBox="0 0 24 24" fill="none" xmlns="http://www.w3.org/2000/svg">
<path d="M19.3541 10.5311H18.75V10.5H12V13.5H16.2386C15.6203 15.2464 13.9586 16.5 12 16.5C9.51487 16.5 7.5 14.4851 7.5 12C7.5 9.51487 9.51487 7.5 12 7.5C13.1471 7.5 14.1908 7.93275 14.9854 8.63962L17.1068 6.51825C15.7673 5.26987 13.9755 4.5 12 4.5C7.85812 4.5 4.5 7.85812 4.5 12C4.5 16.1419 7.85812 19.5 12 19.5C16.1419 19.5 19.5 16.1419 19.5 12C19.5 11.4971 19.4482 11.0062 19.3541 10.5311Z" fill="#FFC107"/>
<path d="M5.36475 8.50913L7.82887 10.3163C8.49562 8.6655 10.1104 7.5 12 7.5C13.1471 7.5 14.1907 7.93275 14.9854 8.63963L17.1067 6.51825C15.7672 5.26988 13.9755 4.5 12 4.5C9.11925 4.5 6.621 6.12638 5.36475 8.50913Z" fill="#FF3D00"/>
<path d="M12 19.5C13.9372 19.5 15.6975 18.7586 17.0284 17.553L14.7071 15.5888C13.9541 16.1591 13.0181 16.5 12 16.5C10.0492 16.5 8.39287 15.2561 7.76887 13.5203L5.32312 15.4046C6.56437 17.8335 9.08512 19.5 12 19.5Z" fill="#4CAF50"/>
<path d="M19.3541 10.5311H18.75V10.5H12V13.5H16.2386C15.9416 14.3389 15.402 15.0622 14.706 15.5891L14.7071 15.5884L17.0284 17.5526C16.8641 17.7019 19.5 15.75 19.5 12C19.5 11.4971 19.4482 11.0063 19.3541 10.5311Z" fill="#1976D2"/>
</svg>
