<svg width="36" height="36" viewBox="0 0 36 36" fill="none" xmlns="http://www.w3.org/2000/svg">
<g clip-path="url(#clip0_2576_16280)">
<path d="M21.6096 10.4308H8.53044C6.84425 10.4308 5.47733 11.8151 5.47733 13.5228V29.4218C5.47733 31.1295 6.84425 32.5138 8.53044 32.5138H21.6096C23.2958 32.5138 24.6627 31.1295 24.6627 29.4218V13.5228C24.6627 11.8151 23.2958 10.4308 21.6096 10.4308Z" stroke="#333333" stroke-width="3"/>
<path d="M24.4854 28.584C26.1498 28.8533 27.7158 27.7062 27.9817 26.0206L30.4833 10.3211C30.7492 8.63544 29.6166 7.04953 27.9521 6.78023L14.1836 4.53602C12.5192 4.26672 10.9532 5.41376 10.6873 7.09941L10.0471 11.139" stroke="#333333" stroke-width="3"/>
</g>
<path d="M20 19.8548C20 22.4955 17.0092 24.956 15 26C12.967 24.9761 10 22.5026 10 19.8548C10 18.2811 11.2265 17 12.7472 17C13.6796 17 14.5056 17.4877 15 18.229C15.4944 17.4877 16.3141 17 17.2528 17C18.7672 17 20 18.2811 20 19.8548Z" fill="#333333"/>
<defs>
<clipPath id="clip0_2576_16280">
<rect width="28" height="31" fill="white" transform="translate(4 3)"/>
</clipPath>
</defs>
</svg>
