<svg width="18" height="18" viewBox="0 0 18 18" fill="none" xmlns="http://www.w3.org/2000/svg">
<path fill-rule="evenodd" clip-rule="evenodd" d="M2 9C2 5.13401 5.13401 2 9 2C12.866 2 16 5.13401 16 9C16 12.866 12.866 16 9 16C5.13401 16 2 12.866 2 9ZM9 0C4.02944 0 0 4.02944 0 9C0 13.9706 4.02944 18 9 18C13.9706 18 18 13.9706 18 9C18 4.02944 13.9706 0 9 0ZM10 6C10 6.55228 9.55229 7 9 7C8.44771 7 8 6.55228 8 6C8 5.44772 8.44771 5 9 5C9.55229 5 10 5.44772 10 6ZM8 9C8 8.44771 8.44771 8 9 8C9.55229 8 10 8.44771 10 9V12C10 12.5523 9.55229 13 9 13C8.44771 13 8 12.5523 8 12V9Z" fill="#D7D7D7"/>
</svg>
