<svg width="220" height="36" viewBox="0 0 220 36" fill="none" xmlns="http://www.w3.org/2000/svg">
<path d="M56.2588 25.6534C61.3631 25.6534 65.515 21.5802 65.515 16.5727C65.515 11.5651 61.3631 7.49194 56.2588 7.49194C51.1546 7.49194 47.0027 11.5651 47.0027 16.5727C47.0027 21.5802 51.1546 25.6534 56.2588 25.6534ZM50.6063 16.5727C50.6063 13.5146 53.1417 11.0273 56.2588 11.0273C59.376 11.0273 61.9114 13.5146 61.9114 16.5727C61.9114 19.6307 59.376 22.1181 56.2588 22.1181C53.1417 22.1181 50.6063 19.6307 50.6063 16.5727Z" fill="#1D1D1D"/>
<path d="M65.1983 27.401C65.4557 26.4591 64.8843 25.4869 63.9242 25.2344C62.9641 24.9819 61.9731 25.5425 61.7157 26.4818C61.0542 28.896 58.8096 30.5803 56.2562 30.5803C53.7028 30.5803 51.4583 28.896 50.7967 26.4818C50.5393 25.5425 49.5484 24.9819 48.5882 25.2344C47.6281 25.4869 47.0567 26.4591 47.3167 27.401C48.4003 31.3555 52.076 34.1181 56.2562 34.1181C60.4364 34.1181 64.1121 31.3555 65.1958 27.401H65.1983Z" fill="#1D1D1D"/>
<path d="M30.1403 26.611C31.1339 26.611 31.9421 25.8181 31.9421 24.8433V15.3207C31.9421 12.9521 33.9087 11.0253 36.3231 11.0253H36.4286C38.8431 11.0253 40.8096 12.9521 40.8096 15.3207V24.8433C40.8096 25.8181 41.6178 26.611 42.6114 26.611C43.605 26.611 44.4132 25.8181 44.4132 24.8433V15.3207C44.4132 11.0026 40.8302 7.48999 36.4286 7.48999H36.3231C31.9215 7.48999 28.3385 11.0026 28.3385 15.3207V24.8433C28.3385 25.8181 29.1467 26.611 30.1403 26.611Z" fill="#1D1D1D"/>
<path d="M89.6439 26.611C90.6374 26.611 91.4457 25.8181 91.4457 24.8433V15.3207C91.4457 12.9521 93.4122 11.0253 95.8266 11.0253H95.9322C96.9257 11.0253 97.734 10.2324 97.734 9.25765C97.734 8.28291 96.9257 7.48999 95.9322 7.48999H95.8266C91.4251 7.48999 87.842 11.0026 87.842 15.3207V24.8433C87.842 25.8181 88.6503 26.611 89.6439 26.611Z" fill="#1D1D1D"/>
<path d="M22.2909 7.78768C21.3154 7.78768 20.5226 8.56545 20.5226 9.52251V24.8456C20.5226 25.8026 21.3154 26.5804 22.2909 26.5804C23.2665 26.5804 24.0593 25.8026 24.0593 24.8456V9.51999C24.0593 8.56293 23.2665 7.78516 22.2909 7.78516V7.78768Z" fill="#1D1D1D"/>
<path d="M22.2909 6.1716C23.4666 6.1716 24.4197 5.23661 24.4197 4.08324C24.4197 2.92986 23.4666 1.99487 22.2909 1.99487C21.1153 1.99487 20.1622 2.92986 20.1622 4.08324C20.1622 5.23661 21.1153 6.1716 22.2909 6.1716Z" fill="#1D1D1D"/>
<path d="M80.9241 8.90587C79.6294 8.1584 78.2446 7.78467 76.7645 7.78467C75.2845 7.78467 73.861 8.1685 72.556 8.9387C71.2484 9.70889 70.1982 10.8149 69.4029 12.2543C68.6049 13.6937 68.2059 15.3654 68.2059 17.2694C68.2059 19.0143 68.592 20.5775 69.3668 21.9588C70.1416 23.3426 71.2381 24.4183 72.659 25.1885C74.0798 25.9612 75.7246 26.3451 77.5959 26.3451C78.7517 26.3451 79.8842 26.1178 80.9936 25.6658C82.103 25.2113 82.9911 24.6582 83.6603 23.9991C84.1236 23.6153 84.3553 23.1835 84.3553 22.7088C84.3553 22.3451 84.2214 22.0269 83.9563 21.7567C83.6886 21.484 83.3617 21.3477 82.9679 21.3477C82.6436 21.3477 82.309 21.4487 81.964 21.6532C81.4312 22.1532 80.8186 22.5598 80.1262 22.8779C79.4338 23.1961 78.5329 23.3527 77.4235 23.3527C75.807 23.3527 74.4376 22.8552 73.3179 21.8578C72.2549 20.9133 71.6217 19.6709 71.426 18.133H71.6036V18.0346L71.6706 18.027C71.6654 17.979 71.6577 17.931 71.6525 17.8805H83.5882C84.0284 17.8805 84.4094 17.7391 84.7337 17.4563C85.0554 17.1735 85.2305 16.8275 85.2536 16.4184C85.2305 14.7871 84.8238 13.3149 84.0387 11.9993C83.2536 10.6836 82.2137 9.65334 80.9216 8.90587H80.9241ZM73.4029 11.8452C74.3501 11.1331 75.4724 10.7745 76.7645 10.7745C78.0567 10.7745 79.1275 11.1609 80.1082 11.9311C81.0914 12.7013 81.6397 13.6886 81.7555 14.8881V14.9083H81.5676V14.9765H81.4981V15.1609H71.7941C71.8044 15.1129 71.8147 15.0649 71.825 15.0194L71.7632 15.0043V14.9083C71.8018 14.9083 71.8327 14.9386 71.8327 14.9614V14.0826C72.1776 13.123 72.7002 12.373 73.4029 11.8452Z" fill="#1D1D1D"/>
<path d="M7.20475 6.6386C7.21248 6.62345 7.22277 6.61083 7.24336 6.58052C7.46473 6.22699 7.77876 5.93659 8.14942 5.74215C8.2704 5.67902 8.39138 5.62851 8.50978 5.58811C8.75431 5.50478 9.01429 5.46185 9.28199 5.46185H16.3708C17.3438 5.46185 18.1366 4.68408 18.1366 3.72702C18.1366 2.76996 17.3438 1.99219 16.3708 1.99219H8.84955C5.81736 1.99219 3.35145 4.41135 3.35145 7.38607V12.2724H1.99752C0.90099 12.2724 0.0078125 13.0502 0.0078125 14.0047C0.0078125 14.9592 0.90099 15.7395 1.99752 15.7395H3.35145V24.8505C3.35145 25.8076 4.14425 26.5854 5.11723 26.5854C6.09021 26.5854 6.88558 25.8076 6.88558 24.8505V15.7395H16.1469C17.2434 15.7395 18.1366 14.9618 18.1366 14.0047C18.1366 13.0476 17.2434 12.2724 16.1469 12.2724H6.88558V7.81031C6.88558 7.3987 6.99626 6.99466 7.20733 6.63608L7.20475 6.6386Z" fill="#1D1D1D"/>
<path d="M162.137 8.12109C161.176 7.86857 160.185 8.42917 159.928 9.37108C159.671 10.313 160.242 11.2852 161.2 11.5377C163.66 12.1867 165.377 14.3887 165.377 16.8937C165.377 19.3987 163.66 21.6007 161.2 22.2497C160.242 22.5023 159.671 23.4745 159.928 24.4164C160.144 25.2042 160.873 25.7244 161.668 25.7244C161.823 25.7244 161.98 25.7042 162.134 25.6638C166.165 24.6007 168.981 20.9947 168.981 16.8937C168.981 12.7928 166.165 9.18673 162.134 8.12361L162.137 8.12109Z" fill="#1D1D1D"/>
<path d="M177.946 22.2443C175.486 21.5954 173.769 19.3934 173.769 16.8883C173.769 14.3833 175.486 12.1813 177.946 11.5323C178.904 11.2798 179.475 10.3076 179.218 9.36569C178.96 8.42378 177.969 7.86318 177.009 8.11823C172.978 9.18135 170.162 12.7874 170.162 16.8883C170.162 20.9893 172.978 24.5953 177.009 25.6585C177.166 25.6989 177.321 25.7191 177.475 25.7191C178.271 25.7191 178.999 25.1989 179.215 24.4085C179.473 23.4666 178.901 22.4943 177.944 22.2418L177.946 22.2443Z" fill="#1D1D1D"/>
<path d="M148.439 7.36841C143.088 7.36841 138.733 11.6411 138.733 16.891C138.733 22.141 143.088 26.4137 148.439 26.4137C153.791 26.4137 158.146 22.141 158.146 16.891C158.146 11.6411 153.791 7.36841 148.439 7.36841ZM154.542 16.891C154.542 20.1915 151.803 22.8784 148.439 22.8784C145.075 22.8784 142.336 20.1915 142.336 16.891C142.336 13.5906 145.072 10.9037 148.439 10.9037C151.806 10.9037 154.542 13.588 154.542 16.891Z" fill="#1D1D1D"/>
<path d="M218.134 0.555176C217.141 0.555176 216.333 1.3481 216.333 2.32283V9.49448C214.665 8.16621 212.541 7.37076 210.23 7.37076C204.878 7.37076 200.523 11.6434 200.523 16.8934C200.523 22.1433 204.878 26.416 210.23 26.416C212.541 26.416 214.667 25.618 216.335 24.2898C216.374 25.2317 217.164 25.9893 218.134 25.9893C219.105 25.9893 219.936 25.1963 219.936 24.2216V2.32789C219.936 1.35315 219.128 0.560227 218.134 0.560227V0.555176ZM216.333 16.8909C216.333 20.1913 213.596 22.8782 210.23 22.8782C206.863 22.8782 204.127 20.1913 204.127 16.8909C204.127 13.5904 206.865 10.9036 210.23 10.9036C213.594 10.9036 216.333 13.5879 216.333 16.8909Z" fill="#1D1D1D"/>
<path d="M139.34 9.09835C139.34 8.14129 138.547 7.36353 137.572 7.36353H137.466C133.083 7.36353 129.515 10.861 129.515 15.1614V24.6841C129.515 25.6411 130.308 26.4189 131.283 26.4189C132.259 26.4189 133.052 25.6411 133.052 24.6841V15.1614C133.052 12.7751 135.034 10.8332 137.466 10.8332H137.572C138.547 10.8332 139.34 10.0554 139.34 9.09835Z" fill="#1D1D1D"/>
<path d="M193.751 8.74718C192.456 7.99971 191.071 7.62598 189.591 7.62598C188.111 7.62598 186.688 8.00981 185.383 8.78001C184.075 9.5502 183.025 10.6562 182.229 12.0956C181.431 13.535 181.032 15.2067 181.032 17.1107C181.032 18.8557 181.419 20.4188 182.193 21.8001C182.968 23.1839 184.065 24.2596 185.486 25.0298C186.906 25.8026 188.551 26.1864 190.422 26.1864C191.578 26.1864 192.711 25.9591 193.82 25.5071C194.93 25.0526 195.818 24.4995 196.487 23.8405C196.95 23.4566 197.182 23.0248 197.182 22.5501C197.182 22.1864 197.048 21.8683 196.783 21.5981C196.515 21.3253 196.188 21.189 195.794 21.189C195.47 21.189 195.135 21.29 194.791 21.4945C194.258 21.9945 193.645 22.4011 192.953 22.7193C192.26 23.0374 191.359 23.194 190.25 23.194C188.634 23.194 187.264 22.6965 186.144 21.6991C185.081 20.7546 184.448 19.5122 184.253 17.9744H184.43V17.8759L184.497 17.8683C184.492 17.8203 184.484 17.7723 184.479 17.7218H196.415C196.855 17.7218 197.236 17.5804 197.56 17.2976C197.882 17.0148 198.057 16.6688 198.08 16.2597C198.057 14.6284 197.65 13.1562 196.865 11.8406C196.08 10.5249 195.04 9.49464 193.748 8.74718H193.751ZM186.229 11.6865C187.177 10.9744 188.299 10.6158 189.591 10.6158C190.883 10.6158 191.954 11.0022 192.935 11.7724C193.918 12.5426 194.466 13.53 194.582 14.7294V14.7496H194.394V14.8178H194.325V15.0022H184.621C184.631 14.9542 184.641 14.9062 184.652 14.8608L184.59 14.8456V14.7496C184.628 14.7496 184.659 14.7799 184.659 14.8027V13.9239C185.004 12.9643 185.527 12.2143 186.229 11.6865Z" fill="#1D1D1D"/>
<path d="M119.626 10.9167C121.564 10.9167 123.407 11.8334 124.552 13.3713C124.835 13.7526 125.255 14.0026 125.731 14.0733C126.207 14.144 126.684 14.0304 127.072 13.7526C127.461 13.4748 127.716 13.0632 127.788 12.596C127.863 12.1289 127.744 11.6617 127.461 11.2804C125.639 8.83849 122.709 7.37891 119.626 7.37891C114.274 7.37891 109.919 11.6516 109.919 16.9015C109.919 22.1515 114.274 26.4242 119.626 26.4242C122.709 26.4242 125.636 24.9646 127.461 22.5227C128.048 21.7373 127.873 20.6288 127.072 20.053C126.272 19.4773 125.142 19.649 124.555 20.4343C123.407 21.9722 121.566 22.8888 119.628 22.8888C116.264 22.8888 113.525 20.202 113.525 16.9015C113.525 13.6011 116.264 10.9142 119.628 10.9142L119.626 10.9167Z" fill="#1D1D1D"/>
</svg>
