<svg width="48" height="48" viewBox="0 0 48 48" fill="none" xmlns="http://www.w3.org/2000/svg">
<path d="M35.4148 37.145C32.5263 32.1119 31.0422 27.0682 30.2604 24.0191C28.1289 15.7023 28.9532 12.8542 29.9544 10.4523C31.212 7.4384 36.4779 3.81259 42.0745 9.57933C46.555 14.1962 46.5108 20.492 46.4984 21.8129C46.4578 25.7474 44.4253 32.6269 39.7927 36.3109C36.1949 39.1713 35.4148 37.1433 35.4148 37.1433V37.145Z" fill="#FFD362"/>
<path d="M31.4507 39.2436C30.2656 31.6199 27.6123 25.146 25.8895 21.3297C21.1843 10.9178 17.958 8.63757 14.9173 6.96751C11.1001 4.87244 2.60788 5.45969 1.58548 16.0867C0.768272 24.5957 6.05183 31.1049 7.1662 32.4681C10.4828 36.526 18.3223 42 26.2043 42C32.3263 42 31.4507 39.2436 31.4507 39.2436Z" fill="#FFC7C2"/>
<path d="M22.5078 18.7134C22.0293 21.2757 18.1341 21.3143 15.6671 20.6158C11.8047 19.5221 6.75604 15.2908 6.56501 11.2433C6.41947 8.14796 9.15391 5.96614 11.7919 6.0029C17.0862 6.07458 23.1845 15.0886 22.5078 18.7152V18.7134Z" fill="#FE7474"/>
</svg>
