<svg width="50" height="50" viewBox="0 0 50 50" fill="none" xmlns="http://www.w3.org/2000/svg">
<g clip-path="url(#clip0_622_14062)">
<path d="M25.5149 36.2751C25.3418 36.2807 25.1699 36.284 24.999 36.2863C26.8707 36.3065 28.6046 36.0821 30.2029 35.6133L30.1908 35.5549C29.3927 32.6654 28.5186 29.9889 27.5685 27.5256C26.6205 29.6838 25.764 32.0125 24.999 34.5117C25.1765 35.0905 25.3484 35.6783 25.5149 36.2751Z" fill="#FFE001"/>
<path d="M17.36 34.6596C15.0011 33.4751 13.0864 31.8688 11.6171 29.8384C10.1466 27.8081 9.17108 25.5748 8.69048 23.1373C8.2176 20.5517 8.30468 18.4743 8.95503 16.9038C9.60317 15.3334 10.5897 14.4226 11.9125 14.1724C12.7127 14.021 13.6838 14.4596 14.8269 15.4893C15.9689 16.518 17.1803 18.02 18.4601 19.9953C19.7398 21.9695 21.0008 24.342 22.2464 27.1104C22.3081 27.2484 22.3688 27.3863 22.4305 27.5254C23.233 25.4458 24.0894 23.5198 24.9999 21.7452C24.8324 21.4177 24.6626 21.0935 24.4918 20.7772C22.2883 16.7053 20.0033 13.6576 17.6344 11.6329C15.2634 9.60703 13.0346 8.79266 10.9469 9.18751C9.20635 9.51729 7.73038 10.3552 6.51897 11.7024C5.30645 13.0496 4.47092 14.7838 4.01237 16.905C3.55382 19.025 3.56484 21.3952 4.04323 24.0167C4.57453 26.9197 5.6162 29.5176 7.16932 31.8071C8.72244 34.0965 10.6514 35.9844 12.9585 37.4718C14.7564 38.6316 16.7162 39.5021 18.8359 40.0887L19.7938 35.6142C18.944 35.3652 18.1327 35.0477 17.36 34.6596Z" fill="#FFE001"/>
<path d="M24.9978 34.5127C24.234 32.0135 23.3764 29.6848 22.4284 27.5266C21.4782 29.9899 20.6041 32.6652 19.8061 35.5559L19.7939 35.6142C21.3923 36.0831 23.1273 36.3086 24.9978 36.2873C24.827 36.285 24.655 36.2817 24.482 36.2761C24.6495 35.6793 24.8215 35.0915 24.9978 34.5127Z" fill="#BCDBF0"/>
<path d="M45.9833 16.905C45.5258 14.7849 44.6892 13.0507 43.4778 11.7035C42.2664 10.3563 40.7904 9.51842 39.0499 9.18863C36.9622 8.79266 34.7333 9.60815 32.3645 11.6329C29.9957 13.6576 27.7095 16.7053 25.5072 20.7772C25.3352 21.0946 25.1666 21.4188 24.999 21.7452C25.9095 23.5198 26.766 25.4458 27.5685 27.5254C27.6291 27.3863 27.6908 27.2473 27.7525 27.1104C28.997 24.3409 30.2591 21.9695 31.5389 19.9953C32.8187 18.02 34.0301 16.518 35.172 15.4893C36.3151 14.4596 37.2862 14.021 38.0865 14.1724C39.4092 14.4226 40.3947 15.3323 41.0439 16.9038C41.6932 18.4743 41.7814 20.5517 41.3085 23.1373C40.8268 25.5748 39.8513 27.8081 38.3819 29.8384C36.9126 31.8688 34.9979 33.4751 32.639 34.6596C31.8663 35.0477 31.055 35.364 30.2051 35.6142L31.163 40.0887C33.2827 39.5021 35.2426 38.6316 37.0404 37.4718C39.3475 35.9855 41.2765 34.0965 42.8296 31.8071C44.3828 29.5176 45.4244 26.9208 45.9557 24.0167C46.4352 21.3952 46.4462 19.025 45.9866 16.905H45.9833Z" fill="#BCDBF0"/>
<path d="M24.9977 36.2861C23.126 36.3063 21.3921 36.0819 19.7938 35.613L18.8359 40.0876C19.1402 40.1717 19.4466 40.2502 19.7575 40.322L20.4221 40.4533C21.9653 40.7449 23.4755 40.8975 24.9536 40.9087C24.968 40.9087 24.9834 40.9087 24.9977 40.9087C25.0121 40.9087 25.0275 40.9087 25.0418 40.9087C26.52 40.8975 28.0301 40.7449 29.5733 40.4533L30.238 40.322C30.5488 40.2502 30.8553 40.1717 31.1595 40.0876L30.2016 35.613C28.6033 36.0819 26.8683 36.3074 24.9977 36.2861Z" fill="#FFE001"/>
<path d="M24.9977 34.5127C25.7615 32.0135 26.6191 29.6848 27.5671 27.5266C26.7646 25.4469 25.9081 23.5209 24.9977 21.7463C24.0872 23.5209 23.2307 25.4469 22.4282 27.5266C23.3762 29.6848 24.2327 32.0135 24.9977 34.5127Z" fill="#EC9316"/>
</g>
<defs>
<clipPath id="clip0_622_14062">
<rect width="42.6471" height="31.8182" fill="white" transform="translate(3.67627 9.09082)"/>
</clipPath>
</defs>
</svg>
