<svg width="24" height="24" viewBox="0 0 24 24" fill="none" xmlns="http://www.w3.org/2000/svg">
<path fill-rule="evenodd" clip-rule="evenodd" d="M12 22C17.5228 22 22 17.5228 22 12C22 6.47715 17.5228 2 12 2C6.47715 2 2 6.47715 2 12C2 17.5228 6.47715 22 12 22ZM12 7.66652C12.2652 7.66652 12.5196 7.77187 12.7071 7.95941L16.0405 11.2927C16.431 11.6833 16.431 12.3164 16.0405 12.707C15.6499 13.0975 15.0168 13.0975 14.6262 12.707L13 11.0807V15.3332C13 15.8854 12.5523 16.3332 12 16.3332C11.4477 16.3332 11 15.8854 11 15.3332V11.0807L9.37379 12.707C8.98326 13.0975 8.3501 13.0975 7.95957 12.707C7.56905 12.3164 7.56905 11.6833 7.95957 11.2927L11.2929 7.95941C11.4804 7.77187 11.7348 7.66652 12 7.66652Z" fill="#333333"/>
</svg>
