<svg width="24" height="24" viewBox="0 0 24 24" fill="none" xmlns="http://www.w3.org/2000/svg">
<path fill-rule="evenodd" clip-rule="evenodd" d="M12 21C16.9706 21 21 16.9706 21 12C21 7.02944 16.9706 3 12 3C7.02944 3 3 7.02944 3 12C3 16.9706 7.02944 21 12 21ZM16.908 10.113L11.979 16.068C11.766 16.283 11.488 16.39 11.209 16.39C10.93 16.39 10.649 16.283 10.431 16.068L7.49095 13.103C7.10295 12.711 7.10295 12.076 7.49095 11.684C7.87895 11.292 8.50895 11.292 8.89795 11.684L11.205 14.011L15.503 8.694C15.89 8.302 16.52 8.302 16.908 8.694C17.297 9.086 17.297 9.721 16.908 10.113Z" fill="#333333"/>
</svg>
