<svg width="24" height="24" viewBox="0 0 24 24" fill="none" xmlns="http://www.w3.org/2000/svg">
<path fill-rule="evenodd" clip-rule="evenodd" d="M12 21C16.9706 21 21 16.9706 21 12C21 7.02944 16.9706 3 12 3C7.02944 3 3 7.02944 3 12C3 16.9706 7.02944 21 12 21ZM8.292 12.277L11.221 9.322C11.434 9.107 11.712 9 11.991 9C12.27 9 12.551 9.107 12.769 9.322L15.709 12.287C16.097 12.679 16.097 13.314 15.709 13.706C15.321 14.098 14.691 14.098 14.302 13.706L11.995 11.379L9.697 13.696C9.31 14.088 8.68 14.088 8.292 13.696C7.903 13.304 7.903 12.669 8.292 12.277Z" fill="white"/>
<mask id="mask0_402_14385" style="mask-type:luminance" maskUnits="userSpaceOnUse" x="3" y="3" width="18" height="18">
<path fill-rule="evenodd" clip-rule="evenodd" d="M12 21C16.9706 21 21 16.9706 21 12C21 7.02944 16.9706 3 12 3C7.02944 3 3 7.02944 3 12C3 16.9706 7.02944 21 12 21ZM8.292 12.277L11.221 9.322C11.434 9.107 11.712 9 11.991 9C12.27 9 12.551 9.107 12.769 9.322L15.709 12.287C16.097 12.679 16.097 13.314 15.709 13.706C15.321 14.098 14.691 14.098 14.302 13.706L11.995 11.379L9.697 13.696C9.31 14.088 8.68 14.088 8.292 13.696C7.903 13.304 7.903 12.669 8.292 12.277Z" fill="white"/>
</mask>
<g mask="url(#mask0_402_14385)">
<path fill-rule="evenodd" clip-rule="evenodd" d="M0 24H24V0H0V24Z" fill="white"/>
</g>
</svg>
