<svg width="24" height="24" viewBox="0 0 24 24" fill="none" xmlns="http://www.w3.org/2000/svg">
<g clip-path="url(#clip0_974_9292)">
<path d="M12.5 3C7.80375 3 4 6.80375 4 11.5C4 13.0583 4.41792 14.5175 5.1475 15.7712C5.43083 16.2671 5.77083 16.7346 6.15333 17.1596C7.71167 18.9021 9.97833 20 12.5 20C15.0217 20 17.2883 18.9021 18.8467 17.1596C19.2292 16.7346 19.5692 16.2671 19.8525 15.7712C20.5821 14.5175 21 13.0583 21 11.5C21 6.80375 17.1962 3 12.5 3ZM18.1596 15.7571C16.8633 17.4712 14.8092 18.5833 12.5 18.5833C10.1908 18.5833 8.13667 17.4712 6.84042 15.7571C6.55 15.3675 6.295 14.9496 6.08958 14.5033C5.6575 13.5967 5.41667 12.5767 5.41667 11.5C5.41667 7.59708 8.59708 4.41667 12.5 4.41667C16.4029 4.41667 19.5833 7.59708 19.5833 11.5C19.5833 12.5767 19.3425 13.5967 18.9104 14.5033C18.705 14.9496 18.45 15.3675 18.1596 15.7571Z" fill="#333333" stroke="#333333" stroke-width="0.4"/>
<path d="M12.5 7.25004C13.6688 7.25004 14.625 8.20629 14.625 9.37504C14.625 10.5438 13.6688 11.5 12.5 11.5C11.3313 11.5 10.375 10.5438 10.375 9.37504C10.375 8.20629 11.3313 7.25004 12.5 7.25004ZM12.5 5.83337C10.545 5.83337 8.95834 7.42004 8.95834 9.37504C8.95834 11.33 10.545 12.9167 12.5 12.9167C14.455 12.9167 16.0417 11.33 16.0417 9.37504C16.0417 7.42004 14.455 5.83337 12.5 5.83337Z" fill="#333333" stroke="#333333" stroke-width="0.4"/>
<path d="M18.9104 14.5034C17.5079 13.115 15.1633 12.2084 12.5 12.2084C9.83666 12.2084 7.49207 13.115 6.08957 14.5034C5.69291 14.893 5.37416 15.318 5.14749 15.7713C5.43082 16.2671 5.77082 16.7346 6.15332 17.1596C6.23124 16.6567 6.47207 16.1892 6.84041 15.7571C7.91707 14.5034 10.0775 13.625 12.5 13.625C14.9225 13.625 17.0829 14.5034 18.1596 15.7571C18.5279 16.1892 18.7687 16.6567 18.8467 17.1596C19.2292 16.7346 19.5692 16.2671 19.8525 15.7713C19.6258 15.318 19.3071 14.893 18.9104 14.5034Z" fill="#333333" stroke="#333333" stroke-width="0.4"/>
</g>
<defs>
<clipPath id="clip0_974_9292">
<rect width="19" height="19" fill="white" transform="translate(3 2)"/>
</clipPath>
</defs>
</svg>
