<svg width="24" height="24" viewBox="0 0 24 24" fill="none" xmlns="http://www.w3.org/2000/svg">
<path fill-rule="evenodd" clip-rule="evenodd" d="M12 21C16.9706 21 21 16.9706 21 12C21 7.02944 16.9706 3 12 3C7.02944 3 3 7.02944 3 12C3 16.9706 7.02944 21 12 21ZM13.7062 8.29129C14.0979 8.67968 14.0979 9.30938 13.7062 9.69777L11.3789 12.0049L13.6961 14.3022C14.0879 14.6906 14.0879 15.3203 13.6961 15.7087C13.3044 16.0971 12.6692 16.0971 12.2774 15.7087L9.32205 12.7788C8.89265 12.3531 8.89265 11.6676 9.32205 11.2311L12.2875 8.29129C12.6792 7.9029 13.3144 7.9029 13.7062 8.29129Z" fill="#333333"/>
<mask id="mask0_58_36517" style="mask-type:luminance" maskUnits="userSpaceOnUse" x="3" y="3" width="18" height="18">
<path fill-rule="evenodd" clip-rule="evenodd" d="M12 21C16.9706 21 21 16.9706 21 12C21 7.02944 16.9706 3 12 3C7.02944 3 3 7.02944 3 12C3 16.9706 7.02944 21 12 21ZM13.7062 8.29129C14.0979 8.67968 14.0979 9.30938 13.7062 9.69777L11.3789 12.0049L13.6961 14.3022C14.0879 14.6906 14.0879 15.3203 13.6961 15.7087C13.3044 16.0971 12.6692 16.0971 12.2774 15.7087L9.32205 12.7788C8.89265 12.3531 8.89265 11.6676 9.32205 11.2311L12.2875 8.29129C12.6792 7.9029 13.3144 7.9029 13.7062 8.29129Z" fill="white"/>
</mask>
<g mask="url(#mask0_58_36517)">
<path fill-rule="evenodd" clip-rule="evenodd" d="M0 24H24V0H0V24Z" fill="#333333"/>
</g>
</svg>
