<svg width="24" height="24" viewBox="0 0 24 24" fill="none" xmlns="http://www.w3.org/2000/svg">
<path fill-rule="evenodd" clip-rule="evenodd" d="M12 22C17.5228 22 22 17.5228 22 12C22 6.47715 17.5228 2 12 2C6.47715 2 2 6.47715 2 12C2 17.5228 6.47715 22 12 22ZM17.4533 9.90336L11.9766 16.52C11.7399 16.7589 11.4311 16.8778 11.1211 16.8778C10.8111 16.8778 10.4988 16.7589 10.2566 16.52L6.98995 13.2256C6.55884 12.79 6.55884 12.0845 6.98995 11.6489C7.42106 11.2134 8.12106 11.2134 8.55328 11.6489L11.1166 14.2345L15.8922 8.32669C16.3222 7.89114 17.0222 7.89114 17.4533 8.32669C17.8855 8.76225 17.8855 9.4678 17.4533 9.90336Z" fill="#333333"/>
</svg>
