<svg width="24" height="24" viewBox="0 0 24 24" fill="none" xmlns="http://www.w3.org/2000/svg">
<path d="M8.33331 6.50008V10.1658H11.0833V6.50008H12.9166V10.1658H15.6666V6.50008H17.5V10.1658L18.4166 10.1667C19.8812 10.1667 21.0784 11.3116 21.162 12.7551L21.1666 12.9167V13.8334C21.1666 14.7628 20.8208 15.6115 20.2509 16.2577L20.25 20.2501C20.25 20.7564 19.8396 21.1667 19.3333 21.1667H4.66665C4.16039 21.1667 3.74998 20.7564 3.74998 20.2501L3.74922 16.2535C3.27159 15.7093 2.9506 15.0199 2.85892 14.2536L2.83836 14.0215L2.83331 13.8334V12.9167C2.83331 11.4522 3.97816 10.255 5.42173 10.1714L5.58331 10.1667L6.49998 10.1658V6.50008H8.33331ZM18.4166 12.0001H5.58331C5.11321 12.0001 4.72576 12.3539 4.67282 12.8099L4.66665 12.9167L4.66626 13.8069L4.66978 13.9419C4.72572 14.9073 5.52771 15.6667 6.49998 15.6667C7.42363 15.6667 8.19362 14.9814 8.31528 14.108L8.32902 13.9685L8.3337 13.8069C8.36676 12.6624 10.0082 12.6215 10.1561 13.6843L10.1663 13.8069L10.1698 13.9419C10.2257 14.9073 11.0277 15.6667 12 15.6667C12.9665 15.6667 13.7583 14.9188 13.8283 13.9703L13.8397 13.7113C13.9534 12.6519 15.5466 12.6519 15.6602 13.7113L15.6717 13.9703C15.7416 14.9188 16.5334 15.6667 17.5 15.6667C18.4665 15.6667 19.2583 14.9188 19.3283 13.9703L19.3333 13.8334V12.9167C19.3333 12.4467 18.9795 12.0592 18.5235 12.0062L18.4166 12.0001ZM7.41665 1.91675C8.62617 2.71534 8.94134 3.83078 8.74479 4.56429C8.54825 5.29781 7.79428 5.73311 7.06077 5.53656C6.32725 5.34002 5.89195 4.58605 6.0885 3.85254C6.3613 2.83443 7.41665 3.29175 7.41665 1.91675ZM12 1.91675C13.2095 2.71534 13.5247 3.83078 13.3281 4.56429C13.1316 5.29781 12.3776 5.73311 11.6441 5.53656C10.9106 5.34002 10.4753 4.58605 10.6718 3.85254C10.9446 2.83443 12 3.29175 12 1.91675ZM16.5833 1.91675C17.7929 2.71534 18.108 3.83078 17.9115 4.56429C17.7149 5.29781 16.961 5.73311 16.2275 5.53656C15.4939 5.34002 15.0586 4.58605 15.2552 3.85254C15.528 2.83443 16.5833 3.29175 16.5833 1.91675Z" fill="white"/>
</svg>
