<svg width="24" height="24" viewBox="0 0 24 24" fill="none" xmlns="http://www.w3.org/2000/svg">
<path fill-rule="evenodd" clip-rule="evenodd" d="M6.39172 4.13661C6.74424 4.04745 7.11322 4.00006 7.49305 4.00006H16.2602C18.7356 4.00006 20.7512 6.01589 20.7512 8.49317V13.1085C20.7512 14.9665 19.6174 16.5648 18.0054 17.2479C19.6174 16.5648 20.7513 14.9665 20.7513 13.1085V8.49316C20.7513 6.01587 18.7356 4.00005 16.2603 4.00005H7.4931C7.11325 4.00005 6.74426 4.04744 6.39172 4.13661ZM8.15263 19.8335C8.18467 19.8133 8.21593 19.7912 8.2463 19.7673L10.9898 17.6016H10.9898L8.24625 19.7673C8.2159 19.7912 8.18465 19.8133 8.15263 19.8335ZM6.30692 18.9249V17.6483C4.29234 17.1223 2.79999 15.2862 2.79999 13.1085V8.49316C2.79999 5.90542 4.90521 3.80005 7.4931 3.80005H16.2603C18.8461 3.80005 20.9513 5.90548 20.9513 8.49316V13.1085C20.9513 15.6962 18.846 17.8016 16.2581 17.8016H11.0592L8.37002 19.9244C8.13959 20.1058 7.86343 20.2 7.58165 20.2H7.20316L7.23605 20.1518C7.16433 20.1315 7.09366 20.1047 7.02487 20.0712C6.58366 19.8565 6.30692 19.4181 6.30692 18.9249ZM8.67913 16.6583V15.4291H7.49295C6.21312 15.4291 5.17234 14.3867 5.17234 13.1085V8.49317C5.17234 7.21493 6.2131 6.17242 7.49295 6.17242L16.2583 6.17256C17.5381 6.17256 18.5789 7.21492 18.5789 8.49317V13.1085C18.5789 14.3866 17.5381 15.4291 16.2582 15.4291H10.2361L8.67913 16.6583ZM10.3055 15.6291H16.2581C16.4319 15.6291 16.6017 15.6114 16.7657 15.5777C16.6017 15.6114 16.432 15.6291 16.2582 15.6291H10.3055L10.3055 15.6291ZM6.87487 6.04911C5.78253 6.32563 4.97234 7.31749 4.97234 8.49317V13.1085C4.97234 14.4971 6.10257 15.6291 7.49295 15.6291H8.47913V17.0709L8.47908 17.071V15.6291H7.4929C6.10252 15.6291 4.97229 14.4971 4.97229 13.1085V8.49318C4.97229 7.31749 5.7825 6.32561 6.87487 6.04911Z" fill="#333333"/>
</svg>
