<svg width="24" height="24" viewBox="0 0 24 24" fill="none" xmlns="http://www.w3.org/2000/svg">
<path fill-rule="evenodd" clip-rule="evenodd" d="M20 10C20 11.4572 19.6104 12.8233 18.9297 14L18.9357 14C16.5217 18.1115 13.392 20.8707 12.356 21.7214C12.1499 21.8907 11.862 21.8909 11.6556 21.722C10.6173 20.8719 7.47826 18.1131 5.06115 14.0045L5.07284 14.0045C4.39056 12.8268 4 11.459 4 10C4 5.58172 7.58172 2 12 2C16.4183 2 20 5.58172 20 10ZM12 12.6685C13.6569 12.6685 15 11.3253 15 9.66846C15 8.0116 13.6569 6.66846 12 6.66846C10.3431 6.66846 9 8.0116 9 9.66846C9 11.3253 10.3431 12.6685 12 12.6685Z" fill="#333333"/>
</svg>
