<svg width="24" height="24" viewBox="0 0 24 24" fill="none" xmlns="http://www.w3.org/2000/svg">
<path fill-rule="evenodd" clip-rule="evenodd" d="M12 22C17.5228 22 22 17.5228 22 12C22 6.47715 17.5228 2 12 2C6.47715 2 2 6.47715 2 12C2 17.5228 6.47715 22 12 22ZM13.8182 9.37369C14.2087 8.98316 14.2087 8.35 13.8182 7.95947C13.4277 7.56895 12.7945 7.56895 12.404 7.95947L9.07067 11.2928C8.88313 11.4803 8.77777 11.7347 8.77777 11.9999C8.77777 12.2651 8.88313 12.5195 9.07067 12.707L12.404 16.0404C12.7945 16.4309 13.4277 16.4309 13.8182 16.0404C14.2087 15.6498 14.2087 15.0167 13.8182 14.6261L11.192 11.9999L13.8182 9.37369Z" fill="#333333"/>
</svg>
