<svg width="24" height="24" viewBox="0 0 24 24" fill="none" xmlns="http://www.w3.org/2000/svg">
<path fill-rule="evenodd" clip-rule="evenodd" d="M12 22C17.5228 22 22 17.5228 22 12C22 6.47715 17.5228 2 12 2C6.47715 2 2 6.47715 2 12C2 17.5228 6.47715 22 12 22ZM11.596 7.95947C11.2055 7.56895 10.5723 7.56895 10.1818 7.95947C9.79127 8.35 9.79127 8.98316 10.1818 9.37369L12.808 11.9999L10.1818 14.6261C9.79127 15.0167 9.79127 15.6498 10.1818 16.0404C10.5723 16.4309 11.2055 16.4309 11.596 16.0404L14.9293 12.707C15.3199 12.3165 15.3199 11.6833 14.9293 11.2928L11.596 7.95947Z" fill="#333333"/>
</svg>
