<svg width="24" height="24" viewBox="0 0 24 24" fill="none" xmlns="http://www.w3.org/2000/svg">
<path fill-rule="evenodd" clip-rule="evenodd" d="M12 22C17.5228 22 22 17.5228 22 12C22 6.47715 17.5228 2 12 2C6.47715 2 2 6.47715 2 12C2 17.5228 6.47715 22 12 22ZM9.37378 10.1817C8.98326 9.79114 8.3501 9.79114 7.95957 10.1817C7.56905 10.5722 7.56905 11.2054 7.95957 11.5959L11.2929 14.9292C11.4804 15.1168 11.7348 15.2221 12 15.2221C12.2652 15.2221 12.5196 15.1168 12.7071 14.9292L16.0405 11.5959C16.431 11.2054 16.431 10.5722 16.0405 10.1817C15.6499 9.79114 15.0168 9.79114 14.6262 10.1817L12 12.8079L9.37378 10.1817Z" fill="#333333"/>
</svg>
