<svg width="24" height="24" viewBox="0 0 24 24" fill="none" xmlns="http://www.w3.org/2000/svg">
<path d="M11.75 21C11.75 21 18.5 14.6033 18.5 9.75C18.5 7.95979 17.7888 6.2429 16.523 4.97703C15.2571 3.71116 13.5402 3 11.75 3C9.95979 3 8.2429 3.71116 6.97703 4.97703C5.71116 6.2429 5 7.95979 5 9.75C5 14.6033 11.75 21 11.75 21ZM11.75 13.125C10.8549 13.125 9.99645 12.7694 9.36351 12.1365C8.73058 11.5036 8.375 10.6451 8.375 9.75C8.375 8.85489 8.73058 7.99645 9.36351 7.36351C9.99645 6.73058 10.8549 6.375 11.75 6.375C12.6451 6.375 13.5036 6.73058 14.1365 7.36351C14.7694 7.99645 15.125 8.85489 15.125 9.75C15.125 10.6451 14.7694 11.5036 14.1365 12.1365C13.5036 12.7694 12.6451 13.125 11.75 13.125Z" fill="white"/>
</svg>
