<svg width="24" height="24" viewBox="0 0 24 24" fill="none" xmlns="http://www.w3.org/2000/svg">
<path fill-rule="evenodd" clip-rule="evenodd" d="M21 12C21 16.9706 16.9706 21 12 21C7.02944 21 3 16.9706 3 12C3 7.02944 7.02944 3 12 3C16.9706 3 21 7.02944 21 12ZM12.8478 12.5393V18H10.7609V12.5393H9V10.382H10.7609V8.83146C10.7609 7.01124 11.8696 6 13.4348 6C13.9061 6 14.3492 6.02909 14.6532 6.04906C14.812 6.05948 14.9329 6.06742 15 6.06742V8.02247H13.8913C13.0435 8.02247 12.8478 8.42697 12.8478 9.03371V10.382H14.8696L14.6087 12.5393H12.8478Z" fill="white"/>
</svg>
