<svg width="16" height="16" viewBox="0 0 16 16" fill="none" xmlns="http://www.w3.org/2000/svg">
<g clip-path="url(#clip0_4794_17895)">
<path fill-rule="evenodd" clip-rule="evenodd" d="M4.66664 3.5C4.53403 3.5 4.40685 3.55268 4.31309 3.64645C4.21932 3.74022 4.16664 3.86739 4.16664 4L4.16664 12C4.16664 12.2761 4.3905 12.5 4.66664 12.5C4.94278 12.5 5.16664 12.2761 5.16664 12L5.16664 5.20717L12.4985 12.539C12.6937 12.7343 13.0103 12.7343 13.2056 12.539C13.4008 12.3437 13.4008 12.0272 13.2056 11.8319L5.87368 4.5L12.6666 4.5C12.9428 4.5 13.1666 4.27614 13.1666 4C13.1666 3.72386 12.9428 3.5 12.6666 3.5H4.66664Z" fill="#333333"/>
</g>
<defs>
<clipPath id="clip0_4794_17895">
<rect width="16" height="16" fill="white"/>
</clipPath>
</defs>
</svg>
